<?xml version="1.0" encoding="utf-8"?>
<!-- Generator: Adobe Illustrator 15.0.0, SVG Export Plug-In . SVG Version: 6.00 Build 0)  -->
<!DOCTYPE svg PUBLIC "-//W3C//DTD SVG 1.1//EN" "http://www.w3.org/Graphics/SVG/1.1/DTD/svg11.dtd">
<svg version="1.1" id="Layer_1" xmlns="http://www.w3.org/2000/svg" xmlns:xlink="http://www.w3.org/1999/xlink" x="0px" y="0px"
	 width="2500px" height="2438px" viewBox="0 0 2500 2438" enable-background="new 0 0 2500 2438" xml:space="preserve">
<radialGradient id="SVGID_1_" cx="670.4375" cy="1196.9985" r="0.76" gradientTransform="matrix(2291.6716 0 0 -2218.7549 -1535562.875 2656451)" gradientUnits="userSpaceOnUse">
	<stop  offset="0" style="stop-color:#423325;stop-opacity:0.98"/>
	<stop  offset="1" style="stop-color:#1C0A00"/>
</radialGradient>
<path fill="url(#SVGID_1_)" d="M104.166,104.411H2395.84v2229.173H104.166V104.411z"/>
<path fill="#FF7F18" d="M104.166,104.411H2395.84v2229.173H104.166V104.411z M0,2437.754h2500.003V0.246H0V2437.754z
	 M1637.502,868.998c0-8.332,3.123-12.502,12.502-12.502h163.541c8.328,0,12.498,3.124,12.498,12.502v821.88
	c0,8.327-2.082,12.498-12.498,12.498h-161.457c-10.416,0-13.545-5.208-13.545-13.54V868.998H1637.502L1637.502,868.998z
	 M1626.045,632.537c0-66.666,46.873-106.248,106.252-106.248c63.543,0,106.248,42.707,106.248,106.248
	c0,68.75-44.789,106.249-108.33,106.249C1669.793,738.79,1626.045,701.287,1626.045,632.537z M1157.293,1211.707
	c-29.162-115.626-97.911-367.71-123.958-489.585h-2.083c-21.877,121.875-77.082,328.123-120.83,489.585H1157.293z M867.711,1380.46
	l-82.294,312.501c-2.083,8.327-5.207,10.411-15.622,10.411H616.669c-10.415,0-12.503-3.125-10.415-15.623L902.085,652.327
	c5.208-18.748,8.333-35.417,10.416-86.456c0-7.29,3.124-10.415,8.332-10.415h218.75c7.291,0,10.415,2.083,12.503,10.415
	l331.248,1123.961c2.084,8.328,0,13.54-8.332,13.54h-172.92c-8.332,0-13.543-2.083-15.621-9.37l-85.418-313.542H867.711
	L867.711,1380.46z"/>
</svg>
