<?xml version="1.0" encoding="utf-8"?>
<!-- Generator: Adobe Illustrator 15.0.0, SVG Export Plug-In . SVG Version: 6.00 Build 0)  -->
<!DOCTYPE svg PUBLIC "-//W3C//DTD SVG 1.1//EN" "http://www.w3.org/Graphics/SVG/1.1/DTD/svg11.dtd">
<svg version="1.1" id="Layer_1" xmlns="http://www.w3.org/2000/svg" xmlns:xlink="http://www.w3.org/1999/xlink" x="0px" y="0px"
	 width="455.818px" height="487.051px" viewBox="168.091 73.44 455.818 487.051"
	 enable-background="new 168.091 73.44 455.818 487.051" xml:space="preserve">
<g>
	<polygon fill="#DD0031" points="396,73.44 396,73.44 396,73.44 168.091,154.713 202.853,456.063 396,563.04 396,563.04 396,563.04 
		589.147,456.063 623.909,154.713 	"/>
	<polygon fill="#C3002F" points="396,73.44 396,127.786 396,127.541 396,375.523 396,375.523 396,563.04 396,563.04 
		589.147,456.063 623.909,154.713 	"/>
	<path fill="#FFFFFF" d="M396,127.541L253.526,447.005l0,0h53.122l0,0l28.642-71.481h120.931l28.642,71.481l0,0h53.122l0,0
		L396,127.541L396,127.541L396,127.541L396,127.541L396,127.541z M437.616,331.459h-83.232L396,231.336L437.616,331.459z"/>
</g>
</svg>
