<?xml version="1.0" encoding="utf-8"?>
<!-- Generator: Adobe Illustrator 15.0.0, SVG Export Plug-In . SVG Version: 6.00 Build 0)  -->
<!DOCTYPE svg PUBLIC "-//W3C//DTD SVG 1.1//EN" "http://www.w3.org/Graphics/SVG/1.1/DTD/svg11.dtd">
<svg version="1.1" id="svg2424" xmlns:svg="http://www.w3.org/2000/svg"
	 xmlns="http://www.w3.org/2000/svg" xmlns:xlink="http://www.w3.org/1999/xlink" x="0px" y="0px" width="166.156px"
	 height="168.104px" viewBox="22.75 14.708 166.156 168.104" enable-background="new 22.75 14.708 166.156 168.104"
	 xml:space="preserve">
<g id="layer1" transform="translate(-34.777313,-129.80241)">
	<g id="g2424" transform="matrix(0.8746356,0,0,0.8746356,14.730518,23.408954)">
		<path id="path2518" fill="#1793D1" d="M143.899,140.651c-8.457,20.735-13.558,34.297-22.974,54.415
			c5.773,6.119,12.859,13.246,24.367,21.295c-12.372-5.091-20.812-10.202-27.118-15.506C106.123,226,87.244,261.818,48.931,330.658
			c30.112-17.384,53.455-28.102,75.21-32.192c-0.934-4.017-1.465-8.363-1.429-12.898l0.036-0.965
			c0.478-19.292,10.514-34.128,22.402-33.121s21.129,17.474,20.651,36.765c-0.09,3.631-0.499,7.123-1.215,10.361
			c21.518,4.209,44.611,14.9,74.317,32.049c-5.857-10.784-11.086-20.504-16.078-29.762c-7.864-6.094-16.067-14.028-32.799-22.617
			c11.501,2.989,19.735,6.437,26.154,10.29C165.417,194.059,161.306,181.501,143.899,140.651z"/>
	</g>
</g>
</svg>
