<?xml version="1.0" encoding="utf-8"?>
<!-- Generator: Adobe Illustrator 15.0.0, SVG Export Plug-In . SVG Version: 6.00 Build 0)  -->
<!DOCTYPE svg PUBLIC "-//W3C//DTD SVG 1.1//EN" "http://www.w3.org/Graphics/SVG/1.1/DTD/svg11.dtd">
<svg version="1.1" id="Layer_1" xmlns="http://www.w3.org/2000/svg" xmlns:xlink="http://www.w3.org/1999/xlink" x="0px" y="0px"
	 width="351.88px" height="386px" viewBox="0 0 351.88 386" enable-background="new 0 0 351.88 386" xml:space="preserve">
<g>
	<path fill="#47848F" d="M124.561,82.061c-49.756-9.063-89.097,0.425-104.775,27.578c-11.699,20.264-8.359,47.134,8.105,75.854
		c1.402,2.446,4.522,3.292,6.968,1.89s3.292-4.522,1.89-6.968c-14.834-25.869-17.725-49.058-8.125-65.674
		c13.022-22.559,48.11-31.021,94.106-22.642c2.764,0.548,5.449-1.249,5.998-4.013c0.548-2.764-1.249-5.45-4.013-5.998
		c-0.053-0.01-0.106-0.02-0.159-0.029H124.561z M53.765,220.4c20.117,22.109,46.255,42.847,76.064,60.059
		c72.173,41.67,149.009,52.808,186.875,26.987c2.317-1.604,2.895-4.782,1.291-7.1c-1.587-2.293-4.722-2.887-7.038-1.333
		c-33.892,23.11-106.88,12.529-176.025-27.393c-28.921-16.699-54.229-36.777-73.618-58.086c-1.862-2.115-5.086-2.32-7.202-0.459
		c-2.115,1.861-2.321,5.086-0.459,7.201C53.689,220.319,53.727,220.359,53.765,220.4L53.765,220.4z"/>
	<path fill="#47848F" d="M304.629,214.194c32.578-38.486,43.955-77.197,28.311-104.297c-11.514-19.941-35.854-30.469-68.198-30.889
		c-2.818-0.038-5.133,2.216-5.171,5.034s2.216,5.133,5.034,5.171c29.092,0.376,50.063,9.448,59.497,25.786
		c12.993,22.51,2.852,57.031-27.261,92.603c-1.861,2.116-1.654,5.341,0.461,7.201c2.116,1.861,5.34,1.655,7.202-0.462
		C304.546,214.294,304.588,214.244,304.629,214.194L304.629,214.194z M220.903,83.76c-29.458,6.313-60.811,18.652-90.918,36.035
		C55.474,162.813,6.87,226.24,13.623,272.236c0.334,2.799,2.874,4.795,5.672,4.461c2.798-0.334,4.795-2.874,4.46-5.672
		c-0.011-0.092-0.024-0.183-0.04-0.273c-5.991-40.835,40.078-100.962,111.367-142.119c29.209-16.865,59.57-28.809,87.959-34.897
		c2.741-0.655,4.432-3.408,3.776-6.149C226.185,84.936,223.581,83.251,220.903,83.76z"/>
	<path fill="#47848F" d="M100.195,304.121c17.041,47.559,44.902,76.846,76.24,76.846c22.852,0,43.994-15.576,60.483-43.003
		c1.526-2.369,0.842-5.526-1.527-7.053c-2.369-1.525-5.527-0.842-7.053,1.527c-0.056,0.087-0.109,0.176-0.16,0.267
		c-14.819,24.648-33.022,38.062-51.743,38.062c-26.025,0-50.884-26.123-66.631-70.088c-0.894-2.673-3.785-4.114-6.458-3.22
		c-2.673,0.894-4.114,3.785-3.22,6.457c0.023,0.068,0.047,0.137,0.073,0.205H100.195z M255.791,294.814
		c8.818-28.174,13.55-60.684,13.55-94.561c0-84.521-29.58-157.388-71.719-176.099c-2.592-1.106-5.59,0.098-6.696,2.689
		c-1.084,2.539,0.048,5.48,2.556,6.637c37.583,16.689,65.659,85.84,65.659,166.772c0,32.861-4.59,64.346-13.086,91.514
		c-0.908,2.668,0.519,5.566,3.186,6.475c2.668,0.908,5.566-0.519,6.475-3.186C255.743,294.977,255.768,294.896,255.791,294.814z
		 M351.88,289.819c0.006-13.486-10.922-24.424-24.408-24.43s-24.424,10.923-24.43,24.408c0,0.007,0,0.015,0,0.021
		c0.006,13.486,10.943,24.414,24.43,24.408C340.95,314.222,351.874,303.297,351.88,289.819z M341.675,289.819
		c0.005,7.851-6.354,14.218-14.204,14.224s-14.218-6.354-14.224-14.203c0-0.008,0-0.014,0-0.021
		c0.005-7.851,6.374-14.21,14.224-14.204C335.313,275.621,341.669,281.977,341.675,289.819z M25.059,314.238
		c13.486,0.006,24.424-10.922,24.43-24.408S38.566,265.406,25.08,265.4c-0.007,0-0.014,0-0.021,0
		c-13.486,0.006-24.414,10.943-24.408,24.43C0.656,303.309,11.581,314.232,25.059,314.238z M25.059,304.033
		c-7.852,0-14.216-6.365-14.216-14.217s6.365-14.216,14.216-14.216s14.216,6.364,14.216,14.216S32.91,304.033,25.059,304.033z"/>
	<path fill="#47848F" d="M176.436,49.063c13.486,0,24.419-10.933,24.419-24.419S189.922,0.225,176.436,0.225l0,0
		c-13.486,0-24.419,10.933-24.419,24.419S162.949,49.063,176.436,49.063z M176.436,38.857c-7.85,0-14.214-6.364-14.214-14.214
		s6.364-14.214,14.214-14.214c7.852,0,14.216,6.365,14.216,14.216s-6.365,14.216-14.216,14.216V38.857z M180.166,217.529
		c-9.54,2.061-18.943-4.003-21.003-13.543c-2.06-9.539,4.003-18.943,13.542-21.003c9.57-1.914,18.879,4.293,20.793,13.862
		c1.872,9.363-4.031,18.52-13.332,20.679V217.529z"/>
</g>
</svg>
