<?xml version="1.0" encoding="utf-8"?>
<!-- Generator: Adobe Illustrator 15.0.0, SVG Export Plug-In . SVG Version: 6.00 Build 0)  -->
<!DOCTYPE svg PUBLIC "-//W3C//DTD SVG 1.1//EN" "http://www.w3.org/Graphics/SVG/1.1/DTD/svg11.dtd">
<svg version="1.1" id="Layer_1" xmlns="http://www.w3.org/2000/svg" xmlns:xlink="http://www.w3.org/1999/xlink" x="0px" y="0px"
	 width="872.257px" height="874px" viewBox="0 0 872.257 874" enable-background="new 0 0 872.257 874" xml:space="preserve">
<g>
	<circle fill="#4E8EF7" cx="436.38" cy="435.882" r="177.964"/>
	<path fill="#4E8EF7" d="M799.563,133.903c0-33.803-27.411-61.195-61.204-61.195c-14.726-0.009-28.956,5.32-40.053,15
		C625.325,32.67,534.604,0,436.375,0C196.03,0,0.498,195.537,0.498,435.887c0,240.34,195.537,435.882,435.882,435.882
		c240.345,0,435.877-195.542,435.877-435.882c0-98.229-32.665-188.96-87.698-261.937
		C794.24,162.855,799.571,148.627,799.563,133.903z M436.375,857.105c-232.259,0-421.224-188.964-421.224-421.229
		c0-232.254,188.965-421.219,421.229-421.219c94.431,0,181.699,31.245,252.034,83.934c-7.331,10.313-11.267,22.653-11.26,35.307
		c0,33.798,27.402,61.189,61.195,61.189c13.163,0,25.316-4.189,35.302-11.259c52.688,70.33,83.933,157.599,83.933,252.044
		c0.01,232.27-188.944,421.229-421.209,421.229V857.105z"/>
</g>
</svg>
