<?xml version="1.0" encoding="utf-8"?>
<!-- Generator: Adobe Illustrator 15.0.0, SVG Export Plug-In . SVG Version: 6.00 Build 0)  -->
<!DOCTYPE svg PUBLIC "-//W3C//DTD SVG 1.1//EN" "http://www.w3.org/Graphics/SVG/1.1/DTD/svg11.dtd">
<svg version="1.1" id="Layer_1" xmlns="http://www.w3.org/2000/svg" xmlns:xlink="http://www.w3.org/1999/xlink" x="0px" y="0px"
	 width="979.298px" height="1094.904px" viewBox="0 0 979.298 1094.904" enable-background="new 0 0 979.298 1094.904"
	 xml:space="preserve">
<path fill="#0F80CC" d="M771.059,48.582H84.035c-46.048,0-83.719,37.676-83.719,83.719v757.66c0,46.043,37.671,83.719,83.719,83.719
	h452.489C531.388,748.531,608.272,311.591,771.059,48.582z"/>
<linearGradient id="SVGID_1_" gradientUnits="userSpaceOnUse" x1="853.8159" y1="863.3086" x2="853.8159" y2="862.3846" gradientTransform="matrix(721.3655 0 0 -761.6777 -615527.625 657651.9375)">
	<stop  offset="0" style="stop-color:#97D9F6"/>
	<stop  offset="0.9202" style="stop-color:#0F80CC"/>
	<stop  offset="1" style="stop-color:#0F80CC"/>
</linearGradient>
<path fill="url(#SVGID_1_)" d="M746.099,73.004H84.035c-32.697,0-59.301,26.6-59.301,59.302v702.376
	c149.942-57.544,374.988-107.199,530.594-104.944C586.599,566.233,678.499,245.807,746.099,73.004L746.099,73.004z"/>
<path fill="#003B57" d="M931.306,23.783C884.253-18.174,827.279-1.323,771.059,48.582c-8.348,7.41-16.676,15.636-24.96,24.422
	c-96.187,102.04-185.471,291.04-213.207,435.388c10.808,21.914,19.248,49.876,24.803,71.237c1.426,5.478,2.709,10.622,3.739,14.996
	c2.441,10.358,3.754,17.071,3.754,17.071s-0.864-3.261-4.403-13.522c-0.673-1.967-1.425-4.115-2.313-6.644
	c-0.463-1.236-0.958-2.46-1.484-3.671c-6.272-14.586-23.627-45.369-31.267-58.774c-6.055,17.761-11.769,35.635-17.139,53.614
	c22.05,40.347,35.489,109.489,35.489,109.489s-1.167-4.481-6.708-20.122c-4.92-13.829-29.421-56.763-35.226-66.799
	c-9.929,36.655-13.873,61.4-10.314,67.424c6.907,11.672,13.483,31.818,19.263,54.093c13.049,50.183,22.113,111.28,22.113,111.28
	s0.293,4.052,0.791,10.281c-1.815,42.143-0.728,85.837,2.539,125.329c4.319,52.282,12.457,97.192,22.831,121.229l7.044-3.837
	c-15.23-47.356-21.421-109.416-18.711-180.989c4.101-109.396,29.274-241.331,75.791-378.84
	c78.594-207.58,187.628-374.129,287.423-453.67c-90.959,82.147-214.063,348.042-250.913,446.504
	c-41.265,110.265-70.505,213.734-88.128,312.87c30.408-92.94,128.718-132.887,128.718-132.887s48.216-59.468,104.563-144.427
	c-33.751,7.698-89.177,20.879-107.741,28.68c-27.386,11.486-34.762,15.406-34.762,15.406s88.698-54.02,164.802-78.477
	C932.106,360.397,1046.136,126.218,931.306,23.783"/>
</svg>
