<?xml version="1.0" encoding="utf-8"?>
<!-- Generator: Adobe Illustrator 21.0.2, SVG Export Plug-In . SVG Version: 6.00 Build 0)  -->
<svg version="1.1" id="Layer_1" xmlns="http://www.w3.org/2000/svg" xmlns:xlink="http://www.w3.org/1999/xlink" x="0px" y="0px"
	 viewBox="0 0 513.8 609" style="enable-background:new 0 0 513.8 609;" xml:space="preserve">
<style type="text/css">
	.st0{fill:#323A53;}
	.st1{fill:#EFF1F4;}
	.st2{fill:#D2E2ED;}
	.st3{fill:#EBF0F5;}
	.st4{fill:#E1EAF1;}
	.st5{fill:#DBE0E8;}
	.st6{fill:#8D9EBD;}
	.st7{fill:#B5C2D4;}
	.st8{fill:#27334E;}
	.st9{fill:#FDFDFE;}
	.st10{fill:#516494;}
	.st11{fill:#DAE7F0;}
	.st12{fill:#5A6E9E;}
	.st13{fill:#ECEEEF;}
	.st14{fill:#2D2E31;}
	.st15{fill:#868887;}
	.st16{fill:#C0BFCC;}
	.st17{fill:#FDFDFD;}
	.st18{fill:#CFCACE;}
	.st19{fill:#DBD5D6;}
	.st20{fill:#8EA2C6;}
	.st21{fill:#768EBA;}
	.st22{fill:#6D83B3;}
	.st23{fill:#FEFEFD;}
	.st24{fill:#EAF4F8;}
	.st25{fill:#EEE7DD;}
	.st26{fill:#495C8F;}
	.st27{fill:#E6DED8;}
	.st28{fill:#526596;}
	.st29{fill:#CBC6D0;}
	.st30{fill:#D7D2D1;}
	.st31{fill:#7E91B4;}
	.st32{fill:#6B7997;}
	.st33{fill:#25272B;}
	.st34{fill:#2E2F31;}
	.st35{fill:#DDDCDE;}
	.st36{fill:#E8E7E8;}
	.st37{fill:#E2DCDB;}
	.st38{fill:#7689B6;}
	.st39{fill:#7E95BE;}
	.st40{fill:#92A3C1;}
	.st41{fill:#929DB2;}
	.st42{fill:#293550;}
	.st43{fill:#2B3753;}
	.st44{fill:#32415F;}
	.st45{fill:#32415E;}
	.st46{fill:#CBD7DF;}
	.st47{fill:#5E7195;}
	.st48{fill:#6D82A9;}
	.st49{fill:#32405D;}
	.st50{fill:#FBFBFA;}
	.st51{fill:#FCFCFB;}
	.st52{fill:#C4CCD7;}
	.st53{fill:#FAFAFA;}
	.st54{fill:#F9FAF9;}
	.st55{fill:#AFB9C4;}
	.st56{fill:#E8E9EC;}
	.st57{fill:#33415E;}
	.st58{fill:#FBFBFB;}
	.st59{fill:#404354;}
	.st60{fill:#E1E3E9;}
	.st61{fill:#C6CBD3;}
	.st62{fill:#A8ADBE;}
	.st63{fill:#434E6D;}
	.st64{fill:#566284;}
	.st65{fill:#6A7799;}
	.st66{fill:#5D697E;}
	.st67{fill:#647490;}
	.st68{fill:#43506C;}
	.st69{fill:#303A52;}
	.st70{fill:#344361;}
	.st71{fill:#FAFBFA;}
	.st72{fill:#344360;}
	.st73{fill:#F8F8F8;}
	.st74{fill:#F7F8F8;}
	.st75{fill:#313D59;}
	.st76{fill:#344461;}
	.st77{fill:#354461;}
	.st78{fill:#2C3854;}
	.st79{fill:#565B70;}
	.st80{fill:#A4AABB;}
	.st81{fill:#8C91A7;}
	.st82{fill:#6B6C86;}
	.st83{fill:#787D93;}
	.st84{fill:#C5CAD5;}
	.st85{fill:#9DA7BE;}
	.st86{fill:#66718E;}
	.st87{fill:#7F89A2;}
	.st88{fill:#7F8EAE;}
	.st89{fill:#96A4BC;}
	.st90{fill:#767C92;}
	.st91{fill:#222A42;}
	.st92{fill:#6D7B93;}
	.st93{fill:#323C58;}
	.st94{fill:#364567;}
	.st95{fill:#4E6089;}
	.st96{fill:#B2BED2;}
	.st97{fill:#7B8FB9;}
	.st98{fill:#35435F;}
	.st99{fill:#384561;}
	.st100{fill:#384764;}
	.st101{fill:#929FBE;}
	.st102{fill:#4D5A79;}
	.st103{fill:#8290A8;}
	.st104{fill:#3E4C69;}
</style>
<ellipse class="st0" cx="263.2" cy="474.6" rx="152.3" ry="134.3"/>
<path class="st1" d="M263.2,608.9c-84.1,0-152.3-60.1-152.3-134.3c0-74.2,68.2-134.3,152.3-134.3V608.9z"/>
<path class="st2" d="M441.5,79c22.1,9.6,44.3,19.1,66.3,28.9c5.2,2.3,9,6.2,9,12.5c-1.1,2.1-2.3,4-5,4c-2.8-0.5-5.2,0.6-7.4,2.3
	c-1.7,1-3.4,2.4-5.6,1.4c-2.8-5.2-2.7-5.1-8-2.1c-3.9,2.2-7.4,5.4-12.2,5.7c-8.5-2.1-17.1-4.2-25.4-7c-5-1.7-5.7-3-2.6-7
	c2.6-3.2,1.2-4.5-1.6-5.9c-3.1-1.6-6.2-3.3-9.6-4.4c-36.7-16.8-73.4-33.7-110.3-50.3c-1.6-0.7-3.1-1.9-4.8-2.2
	c-2.7-0.5-4.9-6-8.1-0.9c-7.5-1.6-14.1-5.6-20.9-8.8c-11.5-5.4-23.3-10-34.4-16.3c-1.8-2.1-4-1.9-6.3-0.9
	c-6.6,3.3-13.5,5.9-19.9,9.4c-6.3,1.8-11.5,6.5-18.3,7.2c-1.2-0.2-2.5-0.2-3.7-0.3c-6.5-0.5-8.4-4.5-5.1-10.2
	c4.9-8.3,12.7-13.2,20.7-17.6c7.7-4.3,15.6-8.2,23.8-11.6c4.6-1.9,8.9-1.8,13.3,0.1C299.4,19.5,333,34.6,367,49.1
	c23.9,10.2,47.5,20.8,71.9,29.7C439.7,79,440.6,79.4,441.5,79L441.5,79z"/>
<path class="st3" d="M3.1,159.6c-2.6-4.9-0.8-10.3-1.8-15.5c-1.4-7.2-1.3-14.7-1.3-22.1c-0.1-6.5,3-11.6,9.1-14.3
	c21.4-9.4,42.9-18.7,64.4-28.1c21.1-9.2,42.2-18.6,63.3-27.8c17.7-7.8,35.5-15.6,53.2-23.4c0.9-0.4,2.1-0.4,3.1-0.6
	c-0.9,5.1-5.5,6-9,7.9c-11.4,6-22.9,11.8-34.4,17.5c-2.8,1.4-7.1,2.9-7,5.7c0.1,3.2,5,3,7.7,4.4c3.3,1.7,6.8,1.3,10.4,0.8
	c2.5-0.4,5.7-1.8,7.2,2c-1,1.6-2.7,2.2-4.3,3c-26.2,13-53,24.5-79.5,36.8c-6.1,2.8-12,5.9-18.4,8c-4.5,4.4-9.7,4-15.5,3.2
	c-10.8-1.4-21.7-0.7-32.6-0.4c-4,0.1-7,2.1-8.5,6c-4.1,3.7-3.4,8.5-2.9,13.2c0.8,6.9,1.1,13.9,1.2,20.8
	C6.5,158.6,5.2,159.6,3.1,159.6L3.1,159.6z"/>
<path class="st4" d="M167.6,66.1c-1.8-1.7-4.2-1.4-6-0.7c-7.8,2.9-13.9-1.9-20.6-4.1c-2.3-0.7-2-2.2-0.4-3.5c1.8-1.4,3.5-3,5.5-4.1
	c12.2-6.3,24.5-12.3,36.8-18.6c3.7-1.9,7.5-3.9,10.3-7.2c6.2-4.2,13.3-6.4,20-9.4c12.7-5.7,25.7-10.8,38.2-16.7
	c5.3-2.5,9.8-2.2,15,0.1c30.1,13.4,60.2,26.7,90.4,39.9c26.5,11.6,53,23,79.5,34.5c1.8,0.8,3.5,1.7,5.2,2.6
	c-1.9,2.1-3.7,0.2-5.3-0.2c-14.3-4.1-27.4-11.1-41.2-16.6c-38.6-15.5-76.3-33.1-114.5-49.4c-5-2.1-10.1-4.2-15-6.5
	c-5-2.3-9.8-1.9-14.7,0.5c-12.1,5.8-24.3,11.3-35,19.6c-3.5,2.7-5.8,6.6-8.1,10.3c-1.7,2.7,0.6,5.9,3.9,6.2c1.7,0.2,3.6-0.6,5,0.9
	c-0.5,2.2-2.4,2.9-4.2,3.6c-13,5.8-25.8,11.8-38.7,17.8C171.7,66.1,169.8,67.3,167.6,66.1L167.6,66.1z"/>
<path class="st5" d="M22.2,397.4c-1.7-5.2-1.4-10.7-2.2-16c-1.4-17.2-2.8-34.3-4.1-51.5c-0.8-10.5-1.4-21.1-2.3-31.6
	c-1.3-15.9-3-31.8-4-47.8c-0.6-10-1.5-20-2.3-30c-1.3-16.6-2.3-33.3-4.1-49.9c-0.4-3.7-0.1-7.4-0.2-11.1c1-0.7,2.1-1.4,3.1-2.2
	c2.1,1.2,2.5,3.3,2.6,5.5c1.1,19.2,2.9,38.3,4.4,57.4c1.6,20,3.3,40,4.8,60.1c1.2,15.5,2.8,30.9,3.5,46.4
	c1.6,18.3,2.9,36.6,4.4,54.9c0.4,4.6,3.9,6.9,6.3,10.1c0.9,2.3,2.5,4.5,2.1,7.2c-1.6,1.9-2.7,0.1-3.9-0.5c-1.5-1.1-3-2.1-4.4-3.4
	c-0.5-0.4-0.9-0.8-1.5-1.1C22.7,394.3,23.7,396.7,22.2,397.4L22.2,397.4z"/>
<path class="st6" d="M513.8,165.9c-0.7,9.9-1.4,19.8-2.2,29.8c2.7,4.5-0.3,9.2,0.3,13.8c-0.9,5.6-0.9,11.2-1.5,16.8
	c-1,7.9-1.6,15.9-1.8,23.9c-0.3,2.2-0.8,4.3-2.1,6.1c-1.6,1.2-3.2,2.2-5.1,0.6c-1-6.5,0.4-13,0.9-19.4c0.6-16.3,2.5-32.5,3.7-48.8
	c0.3-4.4,0.7-8.7,0.7-13.1c1.2-13.3,2.5-26.6,3.2-39.9c0.1-1.1,0.3-2.1,0.8-3c3.2-2.4,3,2.1,4.9,2.4
	C516.1,145.5,514.3,155.7,513.8,165.9L513.8,165.9z"/>
<path class="st7" d="M515.7,135.2c-4.2,2-2.7-1.6-3.2-3.3c-1.9-2.6-1.9-5.5-1-8.5c2.4,0.1,3.3-2.4,5.2-3.1
	C516.4,125.4,517.9,130.4,515.7,135.2L515.7,135.2z"/>
<path class="st8" d="M234.3,36.3l20.3-9.5c2.4-0.6,4.5,0,6.6,1.1l55.1,25.3c8.1,0.6,14.5,5.4,21.5,8.6c32.8,14.8,65.5,30,98.3,44.8
	c2,1.1,4.1,2.2,6.2,3.1c1.1,0.5,2.2,1,3.3,1.5c2.2,1,5.4,1.3,5.4,4.2c0,2.5-2.8,3.3-4.8,4.4c-10.9,6.4-21.9,12.6-32.8,19.1
	c-2.3,1-4.3,2.3-6.4,3.6c-0.6,0.4-1.3,0.8-2,1.1c-29.2,16.9-58.5,33.7-87.7,50.8c-17.2,9.7-34.3,19.7-51.3,29.6
	c-5.3,3.1-10,3.2-15.4,0.1c-19-10.8-37.6-22.3-56.9-32.6c-12.5-7.1-25.4-13.6-37.4-21.6c-12.7-8-25.9-15.2-38.9-22.7
	c-16.2-9.4-32.4-18.8-48.6-28.1c-1.6-1-3.6-1.7-3.4-4.2c1.2-1.7,3.1-2.2,4.9-3c19.6-8.8,39.1-17.9,58.6-26.8
	c27.4-12.5,54.8-25,82.2-37.6C218.9,44,227.1,41.1,234.3,36.3z"/>
<path class="st9" d="M157.1,168.8l37,21.7c4.3,5,7.2,10.9,10.3,16.6c4.6,8.3,10.8,14.6,19.6,18.6c9.5,4.3,18.8,8.9,28.5,12.9
	c6.2,2.6,12.4,2.8,18.7,2.2c5.8-0.6,11.6-1.5,17.1-3.6c16-6,32.2-11.4,47.1-20.1c21.6-12.7,43.4-25.2,64.8-38.2
	c1.8-1.1,3.7-2,4.9-3.9c5.7-5.4,12.9-8.4,19.4-12.5c3.2-2.1,6.6-3.9,9.9-5.9c13.2-8,26.5-15.8,39.7-23.8c1.3-0.8,2.7-1.7,4.3-1.8
	c4.6-2.5,9.1-5,13.7-7.4c5.1-2.6,6-2.1,6.4,4.1c-1.4,3.8-5,5.3-8.1,7.2c-18.6,11.7-37.7,22.6-56.4,34.4
	c-54.9,32.5-109.2,65.9-163.8,98.8c-4.3,2.6-6.2,5.7-6.1,10.7c0.2,11.5,0,23,0.1,34.5c0,1.6-0.2,3.1-0.7,4.6c-1.6,6-2.7,12-1.7,18.2
	c0.3,1.6,0.3,3.2,0.4,4.8c1.5,33.9,1,67.8,1.1,101.8c0,20.3,0,40.7,0,61c0,10.7,0,21.3,0,32c0,2.1,0.2,4.2-1,6.1
	c-3.2,2.4-6,1.6-8.6-1.1c-1-1.8-1.1-3.7-1.1-5.7c0-30.2-0.2-60.3,0.1-90.5c1.8-19.8,3.1-39.6,1.4-59.5c-0.8-8.8-0.2-17.6-0.2-26.4
	c0-5.5-1-10.8-1.8-16.2c-1-13-0.3-26-0.5-39.1c-0.1-7.7,0-15.5,0-23.2c0-3-0.1-6-1.8-8.6c-1.6-3.8-4.9-5.4-8.5-6.6
	c-10.2-4.2-18.8-11.4-28.6-16.3c-24.1-15-48.4-29.4-72.6-44.2c-22.2-13.5-44.4-27.1-66.7-40.3c-12.2-7.8-24.7-15.1-37-22.6
	c-3.1-1.9-6.3-3.7-9.3-5.7c-1.6-1-3.5-1.8-3.6-4.1c2.2-4.9,3.6-5.5,9-3.1c11.2,4.9,21.6,11.2,32.1,17.3c4.6,2.7,9.3,5,14.8,5.3
	c0.7,0,1.5,0.1,2.1,0.4c8.8,5.3,18.9,7.4,28.2,11.6c2.2,1,4.3,2.6,6.9,2.5c11-0.1,21.7,3.2,32.6,2.3
	C152.1,167.5,154.5,168.5,157.1,168.8L157.1,168.8z"/>
<path class="st10" d="M434,168.1c15.9-9.7,31.7-19.6,47.6-29.2c5.8-3.5,11.5-7.3,17.1-11.2c2.2,0.5,3.4-1.8,5.3-1.9
	c1.5,2.7,0.2,5-1.5,6.7c-5.8,6.1-7.7,14-10.9,21.4c-1.4,3.4-2.5,6.9-3.5,10.5c-1.8,6.3-6.7,10.1-11.2,14.1c-1,1.5-2.5,2.5-4,3.4
	c-42.9,26.7-85.7,53.5-128.6,80.2c-1.3,0.8-2.6,1.8-4.2,2.2c-3-0.5-5.1,3.3-8.3,1.7c-1-2.1,0.4-3.5,1.9-4.4
	c8.6-5.2,14.4-12.9,19.4-21.3c8.4-14.2,22-22.7,35.2-31.5c10.6-7,20.9-14.6,30.7-22.5C425,181.5,431.4,176.1,434,168.1L434,168.1z"
	/>
<path class="st11" d="M478.6,131c-5.8,5.1-13,8.3-19.5,12.3c-7.9,4.9-16,9.5-24.1,14.2c-14.5,4.8-29.5,3.6-44.4,3.5
	c-2,0-4.1-0.6-4.6-2.8c-0.5-2.3,1.1-4,2.9-5.3c5.3-3.8,11.4-6.3,16.4-10.5l1.2-0.7c2.7-0.1,4.5-1.9,6.3-3.6
	c12.6-7.5,25.2-14.9,37.9-22.4c-2.6-2.8-6.6-2.6-9.1-5.1c-0.2-1.5-1.9-2-2.4-3.3c0.1-0.2,0.1-0.5,0.2-0.7c5,0.4,8.8,3.5,13,5.6
	c3.1,1.5,1.5,3.6-0.1,5.5c-3.8,4.4-3.6,4,1.9,6C462.2,126.5,470.8,127.5,478.6,131L478.6,131z"/>
<path class="st12" d="M476.5,177.7c-1.2-1.9,0.7-2,1.5-2.4c4.6-2.2,7-6.3,8.6-10.8c2.7-7.8,5.2-15.6,8.7-23.1
	c1.6-3.4,2.9-6.7,5.8-9.1c2-1.7,2.3-4.2,3-6.6c2.2-1.8,4.2-4.1,7.5-2.2c1.7,2.7,0.9,5.6,1,8.5c-2.3,5.1-1.1,10.6-1.7,16
	c-1.1,9.1-1.5,18.4-2.5,27.6c-5.9,15.4-10.7,31.3-18.3,46.1c-1.4,2.8-2.9,5.6-5,8c-1,1.2-2.2,2.6-4,2.1c-1.6-0.5-1.5-2.2-1.7-3.6
	c-0.2-1.2-0.6-2.4-0.8-3.6c0.5-11.8,1.5-23.5,2.4-35.2c0.3-3.7,0.7-7.3,0.1-11C479.7,176.9,477.9,178.6,476.5,177.7L476.5,177.7z"/>
<path class="st13" d="M435.9,107.8c-18.4-8.3-36.9-16.5-55.3-24.9c-21.5-9.8-42.8-19.7-64.3-29.6c1-2.6,2.2-2.9,5-1.6
	c37.4,17.3,74.8,34.4,112.3,51.5c2.1,0.9,4.3,1.6,5.9,3.4l0,0C438.4,107.6,437.3,108.2,435.9,107.8L435.9,107.8z"/>
<path class="st14" d="M234.3,36.3c-1.9,3.9-6.1,4.3-9.4,5.9c-14.8,7-29.8,13.6-44.7,20.4c-32.5,14.8-65,29.7-97.5,44.6
	c-5.6,2.6-11.2,5.2-16.7,7.9c-0.7-0.6-0.7-1.3-0.2-2.1c29.3-13.4,58.6-26.8,87.9-40.2c4.7-2.1,9.3-4.4,14-6.6
	c16.3-7.4,32.5-14.9,48.8-22.3C222.4,41.3,228.3,38.8,234.3,36.3L234.3,36.3z"/>
<path class="st15" d="M261.1,27.9c-2.3,0.5-4.4-0.6-6.6-1.1C257,25.6,259.4,24.5,261.1,27.9z"/>
<path class="st16" d="M24.3,132.1c4.3,2.8,8.5,5.6,12.8,8.4c1.5,1.5,2.7,3.3,3,5.5c1.4,8.7,4.4,17,6.6,25.6c1,3.8,0.6,6.2-3.7,6.9
	c-2.9,1.1-5.1-2.8-8.1-1.2c-1.2,6.2,0.3,12.3,0.8,18.3c0.5,6.6,0.9,13.3,1.4,19.9c1.3,15.6,2.1,31.2,3.5,46.7c0.1,1.2,0,2.5-0.3,3.7
	c-1.2,4.3-0.9,8.7-0.5,13.1c1.7,18,2.5,36,4,54c0.2,2.3,0.2,4.6-0.3,6.8c-2.1,4.2-5.1,3.7-8.2,1.5c-5.6-4-10.8-8.5-15.2-13.8
	c-1.4-16.4-2.8-32.8-4.1-49.3c-0.8-10.1-1.4-20.3-2.3-30.4c-1.3-16.4-2.8-32.8-4.1-49.3c-0.9-10.8-1.6-21.7-2.2-32.6
	c-0.2-2.8-0.3-5.6-1.2-8.3c-0.7-9.7-1.4-19.4-2.1-29c-0.2-3.2,0.7-5.5,4.3-6C14.6,124.2,19.8,127.5,24.3,132.1L24.3,132.1z"/>
<path class="st17" d="M24.3,132.1c-5.3-3.2-10.6-6.4-15.9-9.7c-0.6-6.7,4.9-7.1,8.8-7.2c13.3-0.1,26.7-1.5,39.9,1.4
	c2.1,0.5,3.2,0,4.4-1.7c0.9-1.3,1.5-4,4.2-2.1c0.1,0.7,0.1,1.4,0.2,2.1c0.9,2,2.9,2.4,4.5,3.4c27.4,15.9,54.9,31.7,82.3,47.6
	c1.5,0.9,2.9,1.9,4.4,2.8c-7.2,0.7-14.5,0.4-21.7,0c-2.8-0.2-5.6-1.5-8.3-1.2c-11.9,1.6-21.2-6.8-32.3-8.1c-1.8-0.2-3.2-1.4-4.7-2.3
	c-4.4-2.6-8.7-4.8-14.1-5.3c-7.3-0.7-13.1-5.7-19.4-9.3c-8.1-4.6-16.4-9-24.8-13.1C28.4,127.7,25.6,127.5,24.3,132.1L24.3,132.1z"/>
<path class="st18" d="M20.1,327.3c5.6,2.4,8.7,7.8,13.6,11c2.7,1.8,4.9,4.5,8.7,2.8c3.1,0.5,2.6,3.2,2.3,4.9
	c-1.5,10.3,2.6,17.4,11.5,22.5c3.9,2.2,7.3,5.5,10.8,8.5c16.3,12.6,33.1,24.5,49.6,37c1.9,1.5,4.2,2.7,5.2,5.1c0.4,7-2.7,10-9.3,9
	c-3.3-0.5-6.5-1.6-9.8-2.2c-6.7-1.4-13.5-2.7-20.4-2.8c-6.2-0.1-12.1-1.7-17.5-5.3c-11.4-7.7-23-15.1-33-24.6
	c-8.6-4.8-7.5-13.6-8.3-21.3c-1.2-11.3-1.6-22.7-2.3-34.1C21,334.2,19.5,330.9,20.1,327.3z"/>
<path class="st19" d="M31.8,393.1c7.3,3.6,12.9,9.5,19.7,13.9c6,3.9,12,7.9,18,11.9c3.6,2.4,7.8,2.7,11.7,2.7
	c10.3,0.2,20.2,2.5,30,4.9c7.2,1.7,9.6-0.2,9.7-7.8c6.3,1.8,11.3,5.8,16.3,9.6c5.2,4,10.4,8,16.2,11.1c3.4,1.8,5.6,5.1,8.4,7.6
	c3.9,3.5,8.2,6.5,12.7,9.3c4.8,3,10.9,5.1,12.7,11.6c0.8,6.4-1.9,9-8.5,8.2c-7.1-0.9-13.8-3.4-20.1-6.5c-16-8-32.7-13.7-50.1-17.6
	c-4.4-1.6-7.9-4.5-11.5-7.3c-6.8-5.3-14.3-9.5-21.3-14.4c-0.9-0.7-2-0.7-3-0.5c-6-2-9.7-7.2-15-10.2c-3.7-3.1-7.7-5.8-11.7-8.6
	c-3.2-3.1-7.2-5.4-10.5-8.4c-0.8-0.9-1.7-1.7-1.8-3.1C33.2,397.3,32.5,395.2,31.8,393.1z"/>
<path class="st20" d="M502,257.3c1.4-0.4,2.8-0.7,4.2-1.1c2.4,2.7,1.7,6,1.3,9c-0.4,3.3-0.7,6.6-0.8,10c-1.1,9.8-1.8,19.7-2.5,29.6
	c-1.6,10.3-1.3,20.7-2.8,31c0.2,6.6-1.3,13.1-1.2,19.7c-0.4,2.7-1,5.4-1,8.1c-1,5.6-0.9,11.3-1.4,17c-0.8,5.2-1.3,10.6-6.6,13.8
	c-3.5,2.4-6.8,5.1-10,7.9c-13.4,9.3-25.5,20.3-38.9,29.6c-0.6,0.5-1.1,1-1.7,1.5c-27.7,21.1-55.3,42.2-82.9,63.4
	c-21.1,16.3-42.6,32.1-63.8,48.3c-1.8,1.4-3.7,2.8-5.8,3.8c-2.8,0.8-5.1,2.3-6.5,5c-2.7,2.5-4.5,6.3-9,6c-1.4-1.6-0.6-3.4-0.4-5.1
	c0.7-2.4,2.9-3.4,4.7-4.8c13.8-10.2,27.3-20.8,40.8-31.4c28-21.2,55.7-42.9,83.8-64.1c3.4-2.6,6.7-5.2,10-7.9
	c21.8-16.6,43.4-33.3,65.2-49.8c14.2-10.8,14.1-10.7,15.3-28.2c1.4-21.4,3.2-42.9,5.1-64.3c0.5-5.4,0.9-10.9,1.2-16.3
	c0.1-9.1,1.1-18.1,2.1-27.1C500.6,259.6,500.8,258.3,502,257.3L502,257.3z"/>
<path class="st21" d="M502,257.3c-0.7,10.6-1.4,21.2-2.2,31.8c-3.7,9.7-8.3,19.1-11.2,29.1c-3.7,12.2-8,24.2-11.7,36.4
	c-0.7,2.4-1.5,5.7-5.4,3.1c-0.9-1.6-0.9-3.4-0.7-5.1c1.2-11.8,1.5-23.7,2.4-35.6c1.2-5.4,1.1-10.9,0-16.3c0.4-9.4,0.7-18.9,2.2-28.3
	c0.6-1.3,1.3-2.2,2.6-0.6c0.9,1.1,0.3,2.7,1.4,4c4.1-8,10.4-14.2,14.8-21.8c2.4-4.1,4.9-8.1,6.5-12.6c0.6-1.6,0.9-3.6,3.4-3.2
	C503.4,244.5,502.7,250.9,502,257.3L502,257.3z"/>
<path class="st22" d="M504.1,238.2c-3.1,1.5-2.2,4.9-3.5,7.3c-4.5,8.6-9.9,16.6-15.9,24.2c-2.3,2.9-3,6.8-6.2,9.3
	c-2.1-2.5,0.3-5.7-1.8-7.9c-1-0.6-1.5-1.6-1.4-2.7c1.3-13.8,1.4-27.6,3.4-41.3c0.1-0.7,0.6-1.2,1.2-1.6c1.6,1.6,0.3,3.8,1.5,6.1
	c6.1-5.7,9-13.1,12-20.3c4.3-10.4,8-21,12-31.5c0.6-1.6,1.2-3.4,3-4.2c0,13.4-1.8,26.6-3,39.9C504.6,223,504.5,230.6,504.1,238.2
	L504.1,238.2z"/>
<path class="st23" d="M411.3,115.7c-0.6,1.6-2.1,2-3.3,2.6c-49.2,27.7-98.5,55.3-147.7,83.1c-2.4,1.3-4.1,1.7-6.7,0.2
	c-48.8-28-97.8-55.9-146.6-83.9c-0.7-0.4-1.4-1-2.8-1.9c1.9-0.9,3.2-1.5,4.5-2.1C157,91.3,205.4,69,253.7,46.6
	c2.3-1.1,4.2-1.8,6.9-0.5c49.8,23,99.6,45.9,149.5,68.9C410.5,115.1,410.9,115.4,411.3,115.7L411.3,115.7z"/>
<path class="st17" d="M406.4,175.5c-4.8,5.4-11.5,7.9-17.4,11.6c-23.7,14.9-47.6,29.8-73.1,41.2c-16.6,7.4-33.9,14.7-53,14.3
	c-6-0.1-10.9-2.9-16-4.9c-9.7-3.8-19.1-8.2-28.3-13.1c-9.1-4.9-14.1-13.7-18.5-22.5c-1.9-3.9-5.7-6.8-6-11.6c3.4,0.5,6,2.9,8.8,4.5
	c16.5,9.4,33,18.9,49.4,28.6c4.4,2.6,7.9,2.5,12.2-0.1c16.3-9.8,32.7-19.2,49.1-28.8c1-0.6,2.3-0.9,3.4-1.3c0.5-0.2,1.3-0.3,1.4,0.2
	c0.7,5.5,5,5.4,9,6.1c20.1,3.7,38-2.5,55-12.4c6.1-3.5,12.2-7,18.3-10.7C402.4,175.6,404.1,174,406.4,175.5z"/>
<path class="st24" d="M406.4,175.5c-8,3.2-15,8.3-22.5,12.5c-15.2,8.6-30.8,15.4-48.8,14c-3.8-0.3-7.7-0.9-11.5-1.2
	c-4.8-0.3-6.6-3-6.6-7.4c20.5-12,41-24,61.6-36c8.8-5.1,17.8-10.1,26.7-15.1c-1.8,4.2-6.4,4.6-9.5,7.1c-3.2,2.6-9.3,4.2-8.4,8.3
	c0.9,3.8,6.7,1.5,10.3,1.7c12.5,0.9,24.9-1,37.3-2.1c-8.5,5.1-17,10.3-25.5,15.4C408.4,173.6,407,174.1,406.4,175.5L406.4,175.5z"/>
<path class="st2" d="M435.9,107.8c1.2-0.4,2.3-0.8,3.5-1.2c-0.4,2,5.5,0.4,2.2,4C439.5,109.9,437.5,109.2,435.9,107.8z"/>
<path class="st24" d="M412.7,138.1c-1.3,2.6-2.8,4.8-6.3,3.6L412.7,138.1z"/>
<path class="st25" d="M254.7,444.1l0,96.6c1.3,1.4,1.6,3.2,1.4,4.9c-0.5,4.6,1.6,7.3,6,8.4c0.7,0.6,1,1.3,1.1,2.2
	c0,2.4-1.1,4.5-3.5,4.4c-5.6-0.2-11.6,0.9-16-4.1c-8-7-17-12.9-24.8-20.1c-1.8-1.6-4.2-2.8-3.8-5.8c1.8-2.7,5.7-1.5,7.4-4.2
	c4-11.1,10.7-21,14.6-32.2c2.1-5.8,3.1-11.3,2.2-17.5c-1.9-12.4-2.3-24.9-2.4-37.5c-0.1-8.5-1.7-16.8-2.2-25.3
	c-0.9-15.7-4.2-31.1-6.2-46.7c-1.3-9.6-0.9-19.5-3-28.9c-3.1-14.2-1.4-28.4-1.9-42.7c-0.1-2.9-0.4-5.6-2.7-7.7
	c-1.5-1.4-2.2-3.3-2.4-5.2c-1.3-10.9-3.6-21.6-5.5-32.4c-0.2-0.9-0.1-1.8,0.4-2.6c4.6,1.3,8.4,4.2,12.3,6.6
	c5.3,3.3,10.6,6.7,16.3,9.3c2.8,1.9,6,3,8.5,5.3c2.7,2.7,3.3,5.9,3.3,9.6c-0.1,21.2,0,42.4,0,63.6c0.9,4.1,1,8.4,0.9,12.6
	c-0.2,19.8,1.1,39.5,0.6,59.3C254.9,424.1,254.5,434.1,254.7,444.1L254.7,444.1z"/>
<path class="st26" d="M434,168.1c1.8,3.1-0.4,4.9-2.1,6.9c-12.6,14.6-28.6,24.8-44.2,35.5c-14.4,9.8-28.6,19.8-37,35.9
	c-3.5,6.8-9.5,11.7-15.9,15.8c-1.4,0.9-2.7,1.7-2.7,3.6c0,2.9-2.6,3.6-4.4,4.7c-8.2,5.2-16.3,10.6-24.7,15.4c-5.3,3-9.7,6.3-9.8,13
	c-7.4,6.3-16.4,9.7-25,13.9c-1.6,0.8-3.4,1-4.9-0.4c-0.1-12-0.1-24-0.2-36c0-3.9,1.5-6.5,5.2-8.7c19-11.2,37.6-22.9,56.4-34.3
	c19-11.6,38.1-23,57.2-34.5c16.5-9.9,33.1-19.8,49.7-29.8C432.4,168.7,433.2,168.4,434,168.1L434,168.1z"/>
<path class="st27" d="M213.3,247.7c3.5,10.6,4.7,21.6,6.3,32.5c0.4,2.8,0.6,5.5,3.1,7.5c1.9,1.5,2.3,3.8,2.3,6.3
	c-0.1,5.5,0.3,11-0.1,16.4c-1.1,14.4,3.2,28.2,3.9,42.3c0.7,12.5,2.7,24.8,4.8,37.1c2.6,15.4,2.5,31.1,5,46.5
	c0.6,4,0.1,8.3,0.2,12.5c0.2,11.3,0.8,22.5,3.1,33.6c0.4,1.8-0.1,3.5-0.7,5.2c-3.5,10.5-7.8,20.7-13.4,30.2c-2,3.3-1.3,7.7-4.8,10.2
	c-2.3-2.6-2-5.8-1.2-8.5c2.2-7.6,2-15.3,1.3-23c-0.1-0.9,0-1.8,0.3-2.6c0.8-1.6,1.4-3.2,1.4-5c0-13.8,0.1-27.6,0-41.4
	c0-1.1-0.3-2.1-0.6-3.1c-1.1-6,0.5-12.2-1.1-18.2c-0.6-3.1-0.5-6.3-0.5-9.5c0-37.8-0.2-75.6,0.1-113.4c0.1-7.5-2.1-12.5-8.8-16.4
	c-9.6-5.6-19.3-11.1-28.1-18c-4.7-5-7.8-10.9-9.4-17.5c-2.5-9.8-9.1-17.1-15.2-24.5c-5.1-6.2-9.9-12.9-16.8-17.5
	c-1.8-1.2-4.4-2.8-2.9-6c23,14,46,27.9,69,41.9C211.3,245.8,212.7,246.2,213.3,247.7L213.3,247.7z"/>
<path class="st28" d="M263.3,312.4c1.8,0.1,3.5-0.1,5.1-1c8.1-4.3,16.3-8.5,24.4-12.8c1.9,1.8,1.5,4.2,1.5,6.5c0,25,0,50,0,75
	c0,4.6-1.4,9-1.3,13.6c-0.4,2.4-1.4,4.7-2.3,7c-2.4,6.2-5.8,7.9-12.4,6.4c-1-0.2-2.1-0.6-3.1-0.5c-7.1,1.3-10.1-3.4-12.7-8.6
	c0.1-21.7-0.2-43.4-0.9-65.1c-0.2-5.4-0.2-10.9,1.2-16.3C263.1,315.3,263.2,313.9,263.3,312.4L263.3,312.4z"/>
<path class="st29" d="M42.3,177.9c3.6-1.2,3.9-3.2,2.8-6.9c-3-10.1-5.4-20.4-8-30.6c12.7,7,24.9,14.6,37.1,22.5
	c12.6,19.2,31.1,32.5,48.1,47.3c6.5,5.6,12.5,11.4,15.9,19.5c1.3,3.1,3.4,5.7,5.8,8.2c1.3,1.3,3.2,2.5,2.3,4.9
	c-2.4,1.1-4.1-0.4-5.8-1.5c-30.9-19.4-61.8-38.7-92.8-58C45.7,181.8,42.8,181,42.3,177.9L42.3,177.9z"/>
<path class="st30" d="M146.3,242.7c-8.5-8.1-11.3-20.3-20.5-27.9c-11.4-9.4-23-18.7-33.6-28.9c-6.9-6.7-15.2-12.9-18-23
	c18.2,11,36.5,21.9,54.7,32.9c4.1,2.4,8.1,5,12.2,7.4c0.1,2.2,1.7,3.6,3.2,4.6c11.4,7.5,17.8,19.6,26.7,29.3
	c2.8,3.1,4.2,7.7,5.6,11.8c2.3,6.4,4.2,13,8.9,18.2c-1.9,0.9-3.4-0.2-4.9-1.1c-10.5-6.7-21.1-13.1-31.6-19.8
	C147.7,245.4,146.2,244.6,146.3,242.7L146.3,242.7z"/>
<path class="st31" d="M262.1,556.5c-0.1-0.7-0.1-1.4-0.2-2.1c-2.2-4.3-2.2-8.5,0.1-12.7c0.1-12.7,0.1-25.3,0.2-38
	c0.6-0.5,1.2-0.3,1.6,0.3c2.1,7.9,0.6,15.9,0.9,23.9c0,6.8,1.1,8,7.7,6.8c12.9-2.3,25.4-6,36.9-12.6c2.7-1.6,5.3-4.4,9.1-2.7
	c-7.8,7.5-17.3,13.1-25.5,20.2c-6.5,5.6-14.2,9.7-20.2,15.9c-1.7,2.8-4.2,4.4-7.4,4.9C262.8,560.2,262.9,558,262.1,556.5
	L262.1,556.5z"/>
<path class="st17" d="M263,503.2c-0.3,0.1-0.6,0.3-0.8,0.5c0-45.9,0.3-91.7-0.4-137.6c-0.2-10.6-0.3-21.4-1.5-32.1
	c-0.6-5.6-0.6-11.9,2.6-17.3c0,25.3,0.1,50.6,0.1,75.9c0,2.3,0.1,4.6,0.2,6.9c1.5,1.7,1.6,3.9,1.6,6c0,21.3,0.2,42.5-0.1,63.8
	c0.1,10.1,0.3,20.3-0.1,30.4C264.5,501,264.2,502.3,263,503.2L263,503.2z M254.7,444.1c-1.6-1.4-1-3.3-1-5c0-32.3,0-64.6,0-96.9
	c1.8,3.9,2,8.3,1.9,12.2c-0.4,19.4,2.3,38.8,1,58.1C255.9,423.1,256.7,433.7,254.7,444.1L254.7,444.1z M262,541.7l-0.1,12.7
	c-6.5-0.1-7.2-0.8-7.2-7.4c0-2.1,0-4.2,0-6.4C257.1,541.2,259.4,542.1,262,541.7L262,541.7z M250.4,269c-3.1-1.3-6.3-2.6-8.5-5.3
	C245.3,264.6,248.6,265.6,250.4,269z"/>
<path class="st8" d="M476.5,177.7c1.4-0.7,2.8-1.3,4.2-2c1.4,1.7,1,3.7,1,5.6c-0.4,12.7-1.7,25.3-2.5,38
	c-0.9,13.2-1.8,26.4-2.7,39.5c-0.8,11.8-1.5,23.6-2.6,35.3c-0.6,6.5-0.3,13-0.7,19.5c-0.9,14.1-3,28.1-2.5,42.2
	c1.6,5.3-3.2,6-5.9,8.2c-41.1,30.6-82.3,61.1-123.6,91.5c-13.7,10.4-27.7,20.5-41.5,30.7c-1.8,1.4-3.6,3.7-6.4,2
	c-0.3-0.5-0.6-1.1-0.7-1.7c-0.5-15.8-0.1-31.7-0.2-47.5c0.2-47.1,1.6-94.3,0.9-141.4c-0.1-4.9,1.8-7.7,5.9-10.2
	c12.1-7.2,23.9-14.9,35.9-22.3c1.4-0.8,2.7-1.7,4.3-1.9c26-16.2,52.1-32.3,78.1-48.5c18.1-11.3,36.2-22.6,54.3-33.9
	C473.4,180,475,178.8,476.5,177.7L476.5,177.7z"/>
<path class="st32" d="M339.4,263.4c-13,8.2-25.9,16.5-39.1,24.4c-4.8,2.8-6.4,6.2-6.4,11.6c0.1,44.2,0,88.4-0.1,132.6
	c0,2.3-0.1,4.6-0.1,6.9c-0.9,5-0.1,10.1-0.4,15.1c-1.1,6.1-0.5,12.3-0.4,18.4c0,3.6-0.8,6.3-3.6,8.8c-6.6,6.1-13.1,12.2-20.5,17.3
	c-1.7,1.2-3.4,2.7-5.8,1.8c0-10.3,0.1-20.5,0.1-30.8c4.6-3.1,9.9-4.5,14.7-7.1c8.1-4.3,12.7-9.8,12.7-19.9c0-11.6-0.6-23.2-0.3-34.8
	c0.1-4.2,0.4-8.4,1.5-12.5c2.1-32.2,0.7-64.4,1-96.6c-0.7-5.5,1.3-8.9,6.4-11.9c11.3-6.5,22-13.9,32.9-21
	C334.9,266,336.2,261.7,339.4,263.4L339.4,263.4z"/>
<path class="st33" d="M470.1,357c-1.4-1.2-1.1-3-1-4.5c1-13.8,2.1-27.7,3-41.5c0.4-6,0.7-11.9,1.2-17.9c1.3-17.9,2-35.8,3.4-53.7
	c1.7-21.2,3.8-42.4,4.2-63.7c3.4,0.2,2.1,2.8,2,4.4c-0.9,13.4-1.9,26.7-2.8,40.1c-0.1,1.8-0.1,3.5-0.1,5.3l-3.2,45.6
	c-0.7,9.9-1.4,19.9-2.1,29.8c1,4.4-0.3,8.7-0.2,13.1c-1.1,12.2-1.8,24.4-2.6,36.7C471.6,352.9,471.7,355.2,470.1,357L470.1,357z"/>
<path class="st8" d="M146.3,242.7c12.9,8.4,25.9,16.7,39.3,24.4c10.9,6.9,21.7,13.9,32.7,20.6c4,2.4,5.5,5.3,5.5,9.9
	c0,40.9,0.1,81.7,0.2,122.6c0,1.9,0.1,3.9,0.2,5.8c1,20,1,40.1,0.8,60.1c0,4.5-2.1,5.4-6.2,2.5c-8.9-6.3-17.5-13-26.3-19.5
	C151.6,437.6,109.3,408,68.1,377c-7.1-4.7-13.5-10.5-20.8-15c-2.7-1.7-2.3-4-2.3-6.4c0.2-15.9-1.8-31.6-2.9-47.4
	c-0.4-5.6-0.5-11.2-1.1-16.9c-1.3-12.3-1-24.6-1.9-36.9c-1.3-18.5-2.6-36.9-3.9-55.3c-0.4-6.1-0.7-12.3-1.4-18.4
	c-0.2-2-0.5-4.3,1-6.1c3-0.1,4.6,2.8,7.3,3.4L146.3,242.7L146.3,242.7z"/>
<path class="st34" d="M35,174.4c0.2,15.6,1.8,31.2,3.1,46.7c1,12.2,1.4,24.5,2.3,36.8c1.3,17.7,2.7,35.3,4.1,52.9
	c0.4,4.9,0.3,9.8,0.6,14.7c0.5,10.5,3.1,20.9,0.9,31.4c-1.7-1.4-1.8-3.4-1.9-5.3c-0.4-15.1-1.7-30.1-2.7-45.2
	c-0.9-12.6-2.3-25.1-2.6-37.7c0-1-0.1-2.1,0.4-3.1c-1.2-17.3-2.3-34.6-3.6-51.9c-0.8-11.7-1.8-23.5-2.6-35.2
	C32.8,177.1,31.4,174.4,35,174.4L35,174.4z"/>
<path class="st35" d="M39.1,265.8c0.3,23.6,4.2,47,4.8,70.6c0.2,6.7-0.6,14,2.1,20.6c-0.5,2.5,1.3,3.2,2.9,4.4
	c6.7,4.8,13.3,9.9,19.9,14.8c0.7,2,0.6,3.2-2,2.1c-6.7-5.1-13.3-10.3-20.1-15.3c-3.5-2.6-2.6-6.5-3.2-10c-0.7-3.9,1.1-8.1-1.1-11.8
	c-0.6-20.9-2.5-41.6-4.1-62.4C38,274.5,37.1,270,39.1,265.8L39.1,265.8z"/>
<path class="st36" d="M66.8,378.3c1.8,0.5,1.3-1.4,2-2.1c23.3,17.1,46.7,34.1,69.9,51.3c17.9,13.2,35.6,26.6,53.4,39.9
	c0.4,1.3,1,2.8-0.7,3.5c-1.3,0.6-2.3-0.4-2.8-1.5c-0.6-1.2-2-1.2-2.9-1.9c0-4.2-4.3-4.7-6.6-6.6c-5.9-4.9-12.9-8.1-18.7-13.6
	c-2.9-2.7-4.9-8.6-10.8-7.7c-1.5-4.4-7.7-2.7-9.2-7.6c-0.5-1.5-3.4-3-5-3.9c-4.9-2.9-9.7-6.1-14.4-9.4
	C102.8,405.2,84.8,391.7,66.8,378.3L66.8,378.3z"/>
<path class="st37" d="M185.7,467.4c1.2,0.5,3.2-2,3.7,0.9c0.2,1.2,0.5,2.3,1.7,1.8c0.6-0.2,0.7-1.8,1-2.7c10.4,7.5,20.7,15,32,23.1
	v-64.4c1.9,5.9,0.4,12,0.9,18c1.1,12.7,0.2,25.3,0.5,38c0.1,4,0.5,8.1-1.6,11.9c1.3,8.4,2.2,16.6-0.8,25c-1,2.7-0.2,6-0.2,9
	c-1.4,3.7-5.5,0.8-7.4,3.2c-2.3,1.5-3.7-0.3-5.1-1.4c-22.6-18-46.3-34.6-69.2-52.3c-9.6-7.4-19.6-14.4-29.2-21.8
	c-1.7-1.3-4.2-2.2-3.7-5.2c6.5,1.6,12.7,3.8,19.4,4.7c5.5,0.7,10.7,2.9,15.7,5.8c10.7,6.1,22.4,10.3,34.3,13.5
	c2.7,0.7,5.6,1.2,7.9-1.2C187.4,471.4,186.7,469.4,185.7,467.4L185.7,467.4z"/>
<path class="st5" d="M108.2,450.4c7,7.2,15.6,12.5,23.6,18.5c25.5,19.3,51.5,38,76.6,57.7c2.1,1.7,4,4.1,7,4.5
	c7.5,8.1,16.7,14.3,25.4,21.1c1.3,1,2.6,1.8,3.3,3.3c-2.3,1.9-4.7,0.2-7,0.1c-3.7-1.1-6.3-3.9-9.2-6.1c-34.2-25.8-68.2-52-102.2-78
	c-3.8-2.9-7.4-6-11.4-8.7c-12.4-10.3-25.9-19.3-38.4-29.6c-0.9-1.3-3.1-1.8-2.8-4c1.8-3.7,3-0.2,4.2,0.5
	C88.2,435.7,97.6,444,108.2,450.4L108.2,450.4z"/>
<path class="st38" d="M318.4,519.4c-2.5,0.2-4.7,1.6-6.7,2.9c-11.5,7.6-24.7,10.5-37.7,13.8c-1,0.3-2.1,0.2-3.1,0.2
	c-7.6,0.2-7.7,0-7.5-7.5c1-0.9,2.2-1,3.5-1c7.7,0.2,14.4-2.8,21-6.5c11.6-6.5,22.1-14.5,33-21.9c18.4-12.3,34.6-27.3,51.4-41.5
	c12.3-10.4,20.6-24,27.9-38.2c0.9-1.8,1.1-3.7,0.6-5.6c0.5-2.3,2.5-3.3,4.2-4.6c16.1-12.1,32.4-23.8,48.5-35.9
	c1.5-1.2,3.1-2.5,5.1-2.5c4.3,1.6,3.1,4.6,1.7,7.3c-3.6,6.8-7,13.9-11.8,20.1c-8.2,10.6-15.5,21.9-22.9,33.1
	c-4,6.1-8.7,11.5-13.8,16.6c-22.9,17.5-45.7,34.9-68.6,52.4C334.9,507,326.6,513.2,318.4,519.4L318.4,519.4z"/>
<path class="st39" d="M411.7,448.3c5.1-7.1,10.7-13.8,15.3-21.2c10.2-16.6,23.6-31.2,32-48.9c1-2.2,2.9-4.5-0.6-6.2
	c-0.1-2.8,2.4-3.5,4-4.8c3.5-2.8,7.3-5.2,9.8-9c2.6-0.1,2.7-2,3.3-3.9c4.8-15.2,9.6-30.4,14.8-45.4c1.9-5.6,5-10.8,6.2-16.7
	c0.4-1.8,1.4-2.8,3.2-2.9c-1.8,19.9-3.6,39.8-5.2,59.8c-0.9,10.7-1.7,21.4-2.1,32.1c-0.2,6.5-4.8,9.6-9,12.8
	C459.7,412,435.7,430.1,411.7,448.3z"/>
<path class="st40" d="M272.7,559.9l-2.1,2.2c-1.7,3-4.1,4.8-7.7,4.7c-0.5-0.1-0.9-0.4-1.1-0.9c-0.1-2.7,1.5-4.5,3.4-6.1
	c2.5-1.4,5-2.9,7.5-4.3C273.8,557,272.2,558.4,272.7,559.9L272.7,559.9z"/>
<path class="st31" d="M287.8,548.2c-1.9,2.1-3.8,4.2-6.7,5C282,549.7,284.6,548.5,287.8,548.2z"/>
<path class="st41" d="M472.3,358.1c-0.6,5.3-5.3,6.8-8.6,9.6c-1.7,1.4-3.5,2.8-5.2,4.2c-19.1,14.1-38.2,28.3-57.3,42.4
	c-0.3,1.8-1.7,2.6-2.9,3.5c-26,18.7-51.4,38.3-77.4,57c-1.7,1.2-3.5,4-6.1,1.1c1.6-4.3,6.2-5.4,9.4-8c5.5-4.5,11.3-8.8,17.2-12.8
	c39.8-29.4,79.6-59,119.5-88.3c1.2-0.9,2.8-1.6,3.1-3.4c1.4-2.8,6.8-1.7,6.2-6.4c1.1-14.5,2.3-29,3.4-43.5c2.2,0.5,1.4,1.9,0.9,3.1
	C473.7,330.5,473,344.3,472.3,358.1L472.3,358.1z"/>
<path class="st39" d="M474.4,316.7c-0.1-1.1,0.2-2.3-0.9-3.1c0.4-4.2,0.7-8.5,1.1-12.7C475.9,306.1,476.2,311.4,474.4,316.7
	L474.4,316.7z"/>
<path class="st42" d="M290.4,90.5l7.9-10.1c-0.2-0.3-0.4-0.6-0.6-0.9c-26.5,10.8-53,21.7-79.5,32.5c-0.2-0.3-0.4-0.6-0.6-0.9
	c6.8-6.8,13.6-13.5,20.4-20.3c7.8-7.8,7.8-7.8-2.5-12.5c-4.6-2.1-9.2-4.2-14.9-6.9c9-4.2,17.4-7.4,25-11.9c8.4-5,15.5-4.5,24.4-0.2
	c38.6,18.6,77.6,36.4,116.5,54.5c1.2,0.6,2.5,1.2,3.7,1.7c-0.2,1.9-1.7,2-2.6,2.5c-25.3,14.1-50.6,28.1-75.9,42.2
	c-2.8,1.6-5,1.7-7.8,0.1c-5.5-3.1-11.2-6-16.8-8.9c-6.6-3.5-6.6-3.5-2.1-9.1c13.1-16.2,26.1-32.5,40-49.8l-20.2,7.6
	c-0.5,0.2-1.2,0.4-1.4,0C300,95.6,295.2,93.1,290.4,90.5L290.4,90.5z"/>
<path class="st43" d="M280.4,159.5l16.6,8.7c-8.7,4.9-16.6,9.3-24.5,13.7c-5.2,2.9-10.5,7.7-15.8,7.8c-5.1,0-10.2-5-15.2-7.9
	c-36.9-20.8-73.8-41.7-110.7-62.5c-1.5-0.9-3-1.8-4.5-2.6c0.1-2.1,1.9-2,3-2.6c25.7-12.1,51.5-24,77.2-36.1c2.8-1.3,5.2-1.6,8-0.2
	c3.8,1.9,7.7,3.7,11.6,5.1c4,1.4,4.9,2.5,1.3,6c-14.9,14.3-29.5,29-44.3,43.5c-1.4,1.4-3,2.5-3.9,4.6c10.7-4.1,21.3-8.3,32-12.4
	c3.8,1.3,3.7,4.6,3.4,7.5c-0.7,6.4,2.4,9.7,7.8,12.1c13.7,6.1,27.2,12.6,40.8,18.8c3,1.4,5.6,1.3,8.6,0
	C274.6,161.6,276.9,159,280.4,159.5L280.4,159.5z"/>
<path class="st44" d="M280.4,159.5c-0.9,0.6-1.7,1.2-2.6,1.8c-6.2,4.3-11.9,5.3-19.3,1.1c-11-6.2-22.9-10.7-34.4-15.9
	c-1.4-0.7-2.8-1.4-4.3-2.1c-4.7-2.1-7.7-5.1-6.7-10.9c0.6-3.1,0.4-6.3-2.1-8.9c18.8-7.9,37.5-15.8,56.3-23.7c0.2,0.3,0.5,0.6,0.7,1
	l-29.9,34.9c0.1,0.3,0.3,0.5,0.4,0.8l54.7-22.6c0.2,0.3,0.4,0.5,0.6,0.8c-4.3,5.4-8.6,10.8-12.9,16.2c-4.4,5.5-8.8,11.1-13.3,16.5
	c-1.7,2-1.6,3,0.8,4.3C272.6,154.7,276.5,157.2,280.4,159.5L280.4,159.5z"/>
<path class="st45" d="M290.4,90.5c7.2-0.3,10.4,5.2,14.3,9.7l-33.3,14.2c-0.3-0.4-0.6-0.7-0.9-1.1
	C277.1,105.7,283.7,98.1,290.4,90.5z"/>
<path class="st46" d="M265.2,559.8c-0.1,2.5-2.4,4-3.1,6.2c-0.4,1.6-1.7,2.1-3.2,2.3c-6.1,0.9-19.7-7.6-22.2-13.9l7.4,1.1
	c4.1,4.8,10.1,2.8,15.2,4.1c1.7,0.5,2.7-1.3,2.8-3.1C263.3,557.4,263.5,559.3,265.2,559.8L265.2,559.8z"/>
<path class="st25" d="M223.9,494c-0.9-0.4-3.8-0.6-1.5-1.9c3-1.7,2.5-3.9,2.5-6.2c0-13.9,0-27.8,0-41.7c1.5,1.2,1,2.9,1,4.4
	c0,13.3,0,26.7,0,40C226,490.6,226.3,492.8,223.9,494z"/>
<path class="st47" d="M291.8,395.2c0.5,11.3-0.1,22.5,0.7,33.8c0.5,7-0.4,14.4-0.8,21.6c-0.2,3.7-3,6-5.6,8.1
	c-6.7,5.5-14.2,9.5-23,10.9c0-23.4,0-46.7,0.1-70.1c0.2,0,0.5,0,0.5,0.1c3.9,6.6,11.1,5.1,16.9,6.9c4,1.2,6.6-1.2,8.4-4.6
	C290.1,399.8,290,397.1,291.8,395.2L291.8,395.2z"/>
<path class="st48" d="M315.2,475.9c2.1,1.1,3.1-0.8,4.4-1.8c27.2-19.9,54.4-39.9,81.6-59.8c2.7,1.2,1.8,2.9,0.9,4.8
	c-9.4,19.2-22.1,35.8-39.2,48.9c-11.3,8.6-21.1,19.1-33.1,26.8c-11.8,7.5-22,17.4-34.8,23.7c-3.6,1.8-6.8,4.3-10.4,6.2
	c-6.6,3.5-13.7,5.5-21.3,4.3l-0.3-25.7l0.1-2.9c10.7-5.7,18.9-14.5,27.7-22.5c1.6-1.4,0.9-3.3,1-5c0.6-6-1.2-12.2,1.1-18.2
	c1.2,9.4,0.2,18.8,0.6,28.2c0.1,1.9-0.7,3.9,0.6,5.6l-0.1,0.1c3.8,0.7,5.4-2.7,7.9-4.3c3.6-2.5,7.3-4.7,10.5-7.8
	C313,475.8,314,475.4,315.2,475.9z"/>
<path class="st49" d="M438.3,307.4c-3,5.3-3.1,11-3.2,16.9c-0.2,8.2-1.5,16.1-7.1,22.7c-2.9,3.4-6.4,6-10,8.5
	c-9.6,6.5-18.3,14.3-28.4,20.1c-3.6,2-7.5,2.6-11.7,2.9c-9.8,0.6-18.8,4.3-27.9,7.4c-5.6,1.9-11,4.7-17.3,4.2
	c-1.8-0.1-3.5-0.3-5.1-1.3c5.1-9.8,2.2-20.6,4.2-30.9c-0.2-0.7-1.3-0.2-0.6-0.3c0.3,0,0.3,0.1,0.3,0.4c-1.3,7.3-2,14.6-2.1,22
	c0,2.1,0.6,4.7-2.3,5.8c-3.2,0-4.2-3.6-6.9-4.4c-0.9-1.2-1-2.6-0.7-4c1.8-8.6,2.9-17.3,5.3-25.7c1.2-1.2,2.7-1.8,4.4-1.9
	c1.3,0.5,2.7,0.9,3.4-0.9c0.7-1.8,0.3-3.3-1.3-4.4c1.3-7.6,6.2-13,11.3-18c16.5-16.4,33-32.8,50.5-48.1c9.7-8.5,21.3-14.8,32.1-22.2
	c1.4-1,2.9-2,4.4-2.9c2.1-1.3,4.2-2.5,6.8-1.2c2.8,1.4,3.4,3.7,3.3,6.6c-0.1,4.2-0.1,8.5,0,12.7c0,1.7-0.4,3.7,2.2,4.1
	c0.5,1.6-0.4,2.8-1.2,3.8c-4.5,5.9-4.9,13.1-5.8,20.1C434,302.8,436,305.2,438.3,307.4L438.3,307.4z"/>
<path class="st50" d="M324.7,351.5c0.8,6.5-1.7,12.6-2.5,18.9c-0.5,3.6-1.4,7.2-2.1,10.9c-0.9,3.7-2.1,7.4-2.5,11.2
	c-0.5,4.3-2.8,6.5-7.2,8.3c-1.2-11.5-2.5-22.7-3.5-33.9c-0.3-3.1,2.7-3.6,4.9-5.3c0.8,9.1,1.6,17.7,2.4,26.3c0.3,0,0.6,0.1,0.8,0.1
	c1.8-9.5,3.8-19,5.2-28.6C320.8,356,321.8,353.4,324.7,351.5L324.7,351.5z"/>
<path class="st51" d="M438.3,307.4c-6.3-0.1-5.5-5-5.2-8.6c0.6-8.5,2.5-16.8,8.4-23.5c5.7-3.3,7.5-2.3,7.5,4.3
	C449,290.2,448,300.5,438.3,307.4L438.3,307.4z"/>
<path class="st52" d="M463.8,363.4c0.7,1.8,0.7,1.8-1.1,3.2c-15.3,11.2-30.6,22.5-45.9,33.7c-25.1,18.5-50.1,36.9-75.2,55.4
	c-1.1,0.4-1.3,0-1-1c30.3-22.5,60.5-45,90.8-67.5C442.2,379.3,453.1,371.4,463.8,363.4L463.8,363.4z"/>
<path class="st53" d="M457.1,285.1c-2.9,4.2-1.1,10.2-6.9,12.8c-0.3-3.5,1.1-6.3,2.2-9c2.4-6,3.2-11.8,0.2-17.7
	c-1.4-2.8,0.6-3.8,2.4-4.9c3.1-1.9,1.8,2.1,3.7,2.5c2.1-2.7,0.8-7.9,5.7-9c0.9,1.7-0.3,3.3-0.9,4.6c-3,6.8-3.9,13.5-0.3,20.3
	c2,3.9-1.2,4.8-3.9,6.6C458.6,289.2,457.9,287.3,457.1,285.1L457.1,285.1z"/>
<path class="st54" d="M327,385.7c0.6-7.9,1.4-15.8,1.8-23.7c0.1-2.9,1.1-4.6,4.6-5.8c-0.6,9.7-1.2,19.1-1.8,28.4
	c-0.2,2.3-2.6,2.7-3.9,4L327,385.7L327,385.7z"/>
<path class="st55" d="M340.7,454.7c0.3,0.3,0.7,0.7,1,1l-26.5,20.1c-5.6,4.1-11.3,8.1-16.9,12.2c-1.4,1-2.6,2.7-4.3,0.6
	c13.6-9.9,27.1-19.9,40.7-29.8C336.6,457.5,338.7,456.1,340.7,454.7L340.7,454.7z"/>
<path class="st47" d="M294.1,488.5c-1.9-1.2-1.2-3.2-1.2-4.8c-0.1-9.7,0-19.3,0-29c0.5-5.3-1.1-10.7,0.9-15.9
	C293.9,455.4,294,472,294.1,488.5L294.1,488.5z"/>
<path class="st56" d="M331.1,344.3c0.9-0.2,2.2-1.6,2.7-0.6c1.1,2.2,0.7,4.7-0.6,6.9c-0.6,1-1.3,2.3-2.7,2.1c-1.6-0.2-1-2-1.5-3
	L331.1,344.3L331.1,344.3z"/>
<path class="st57" d="M67.5,264.9c3.3-4.8-0.3-9.4-0.3-14.1c0-2.4-0.8-4.9,0.2-7.3c4.1-9.5,8.1-10.3,18.7-3.8
	c12.9,8,25,17.6,36.2,28c9.2,8.6,16.4,18.8,22,30.1c5.3,10.8,11.5,21,17.8,31.2c0.8,1.4,1.5,2.8,1.3,4.5c0.1,9.7,2,19.2,2.6,28.8
	c0.1,1.4,0.4,3,1.4,3.9c5.5,4.8,10.8,10,18.2,12c2.9,2.8,1.7,6.6,2.5,10c1.2,5.5,2.6,10.9,3.7,16.5c0.9,4.5,0.7,8.8-4.2,11.4
	c-5,2.6-10.6,2.2-14.1-1.8c-5-5.7-10-11.4-13.4-18.2c-3.5-7-6.7-14.1-10.5-20.8c-6.7-12.1-15.7-22.2-28.3-28.4
	c-8.3-4.1-17-6.4-25.2,0.7c-2.1,1.8-3.8,0.3-5.1-0.9c-1.6-1.6-3-3.5-4-5.5c-5.5-11.8-8.4-24.2-9.5-37.1c4,0.5,8.2,1.3,8.8-4.6
	c0.8-1.2,0.8-3.3,3.1-2.6c2.1,4.7,0.9,10.1,3.2,15.6c-0.5-4.7-0.7-8.6-0.5-12.6c0.3-1.5,0.4-3.6,2.4-3.3c2.9,0.4,1.8,3.2,2.3,4.9
	c3.9,8.7,6.9,18,13.8,25.1c1.1,0.9,2.2,1.8,3.4,2.5c1.3,1,2.9,1.2,4.5,1.2c5.4,2.8,10.3,6.4,15.6,9.4c1.5,1.3,2.2,3,3,4.7
	c0.9,1.9,2.1,3.1,4.4,2.5c0.8,0,1.5,0.1,2.1,0.5c4.1,6,9.5,10.5,16.8,14.4c-1.3-4.2-4.1-5.3-6.3-6.7c-7.3-4.6-12.1-10.7-13.5-19.3
	c-0.3-2.1-0.5-4.2,0.3-6.3c1.4-3.8,3.4-4.5,7-2.5c1.5,0.9,2.8,2.2,4.3,3.1c1.3,0.8,2.4,2.2,5,1.9c-4.1-4.3-8.7-7.1-13.3-9.8
	c-1.7-1-3.4,0.3-5.1,0.8c-2.6,0.2-3.6-1.8-4.8-3.6c-2.7-4.2-5-8.5-7-13.1c-6.2-14.9-14.9-28-26.5-39.3c-3.7-3.6-6.5-7.9-10.3-11.4
	c-1.2-1.1-2.3-2.2-3.7-3c-1.6-0.8-3.4-1.5-5-0.4c-1.8,1.2-1.5,3.1-1.2,4.8c1.5,6.9,3.6,13.7,6,20.3c1.1,3,2.2,6,2.9,9.1
	c0.3,1.6,0.5,3.3,0,4.9c-0.3,0.8-0.8,1.4-1.7,1.5c-2.2-0.7-2.4-2.8-3-4.6c-2.4-7.7-6.2-14.4-13.4-18.7
	C69.2,268.3,67.5,267.2,67.5,264.9L67.5,264.9z"/>
<path class="st51" d="M87.2,299.7c-2,7.3-3.1,7.7-9.8,4.2c-7.9-5.9-16-11.5-18.7-21.8c-1.2-4.6-2.7-9.1-2.1-13.9
	c0.8-6.5,3.7-7.7,9-4c0.6,0.4,1.2,0.6,1.8,0.9c5.9,5.2,13.2,9.1,15.9,17.2c1.1,3.4,2.4,6.8,3.6,10.2
	C89.2,294.7,87.1,297.2,87.2,299.7z"/>
<path class="st58" d="M204.1,382c-5.2-3.7-9.9-7.1-15.4-11c1.1,5.6,3.2,9.6,7.1,12.5c3.5,2.7,7.1,5.3,10.7,7.7
	c1.8,1.2,2.5,2.5,1.3,4.4c-1.5,2.5-2.6,0.2-3.7-0.5c-11.5-6.5-18.4-16.2-20.1-29.4c-0.2-1.4-0.4-2.8-0.3-4.2c0.2-3,0.2-6.3,3.3-7.8
	c3-1.5,4.9,1,7,2.5c3.2,2.2,6.2,4.6,9.5,6.8c1.9,1.3,2.1,2.8,1,4.4c-1.6,2.5-2.7-0.1-3.7-0.7c-2.3-1.3-4.3-3.1-6.5-4.6
	c-1.8-1.2-3.7-3.4-5.9-0.6c-2.2,2.8,0.4,4,2.2,5.4c4.2,3,8.3,6,12.4,9C206,377.8,206,377.9,204.1,382L204.1,382z"/>
<path class="st53" d="M185.6,378.2c-0.9,1.1-1.3,2.8-3.5,1.1c-4.7-3.7-9.7-7.1-14.5-10.6c-2-1.5-2.8-3.6-3-6
	c-0.9-9.1-1.8-18.3-2.7-27.4c-0.1-1.4,0.1-2,1.5-1.8c1.4,1.2,2.1,2.5,2.3,4.4c0.4,5.4,1.8,10.8,1.6,16.2c-0.2,7.2,2.9,11.5,8.8,15.2
	C179.6,371.6,184.5,373,185.6,378.2z"/>
<path class="st59" d="M236.7,554.4c5.8,4.5,10.8,10.1,18.3,12.1c2.5,0.6,4.8,0.8,7.1-0.5l0,0.5c8.3,0.7,15.6-2.5,22.7-5.9
	c19.1-9.2,37-20.4,53.1-34.3c2.5-2.2,4.6-6.1,9.2-4.9c0.4,2.3-1.2,3.6-2.6,4.8c-19.2,17.1-40.6,30.9-64.2,41.2
	c-7,3.1-14.5,4.4-22.1,4.2c-6.8-0.9-12.9-3.6-18.5-7.4c-15.2-10.1-29.1-21.8-43.2-33.3c-25.2-20.5-51-40.3-77.3-59.4
	c-2-1.4-4.2-2.6-5.4-4.9c-0.5-1.7-0.6-3.4,0.9-4.8c9.4,5.9,17.6,13.2,26.4,19.8c21.8,16.4,43.4,33.1,65.1,49.6
	C216.3,539.1,226.5,546.7,236.7,554.4z"/>
<path class="st60" d="M124.1,508.8c0-0.3,0-0.7,0-1c-0.2-2.1,1.3-1.7,2.4-1.5c1.7,0.3,3.3,1.1,4.9,1.8c0.5,0.3,1,0.5,1.2,1
	c4.2,9.9,12.8,15.4,20.9,21.8c15.6,12.2,30.6,25.1,45.7,37.9c2.9,2.4,6.6,3.5,9.6,5.6c3.1,2.2,7.5,3.7,6.7,9
	c-0.7,0.5-1.4,0.6-2.2,0.6c-5.3-0.7-9.9-3.4-15.3-5c-0.5,4,5.4,7.6,0.4,11.3c-6.7-1.2-12.6-4-17.6-8.5c-0.8-4.2-3.1-7.8-5.2-11.4
	c-0.7-1.2-1.7-2.5-0.6-3.9c1.3-1.5,2.9-0.6,4.4,0c2.1,0.9,3.9,2.3,6,3.2c-16.2-12.5-30.3-27.3-46.2-40.1c-1.4-1.1-2.9-1.9-4.7-2.1
	c-2.5-1.1-3.1-3.8-4.7-5.7C127.2,517.7,124.9,513.5,124.1,508.8L124.1,508.8z"/>
<path class="st61" d="M131.5,508.9c-2.7,0.9-4.6-3.1-7.4-1.1c-1.8-2.5-2.5-5.5-3.2-8.5c-1.1-2.2,0.1-2.8,2-2.7
	c1.4,0.1,2.6,0.8,3.8,1.4c0.4,0.2,0.9,0.5,1.2,0.9c1.6,1.6,2.4,3.7,3.4,5.7C131.7,506,132.4,507.4,131.5,508.9z"/>
<path class="st62" d="M127.3,499.3c-2.1,1.2-4.3-4.6-6.4,0c-0.7-1.4-1.4-2.9-2.1-4.3l0-2.1C124.6,491.3,127.8,493.7,127.3,499.3
	L127.3,499.3z"/>
<path class="st0" d="M347,521.6c-5.8,2.8-10,7.5-15,11.3c-19.3,14.7-39.2,28-62.9,34.7c-2.7,0.8-4.8,0.5-6.9-1.1
	c3.1-0.9,5.9-2.6,8.5-4.4c0.7,3.1,2.5,1.5,4,0.9c14.1-5.5,26.8-13.5,38.7-22.5c22.7-17.2,44.8-35.2,67-53
	c6.3-5.1,10.9-12.1,18.4-15.8c1.1-0.5,1.2-1.6,1.3-2.7c0.5-3.7,4-4.9,6.4-5c1.9,0,0.7,3.6,1,5.6c-6.2,3.4-8.9,10.1-14,14.7
	c-13.2,12-27,23.1-40.6,34.5C351.2,520.1,349.7,522.2,347,521.6L347,521.6z"/>
<path class="st63" d="M347,521.6c15.8-12.5,31.7-24.9,46-39.1c2.9-2.9,7-4.4,7.9-9.4c0.3-1.9,3.6-3.7,6.6-3.4c-0.4,2.5,1,5.1-1,7.4
	c-4.2,2-6.3,5.9-9.1,9.2c-9.4,11-20.4,20.4-31.3,29.8c-5.2,4.5-10.1,9.3-15.9,13c-8.5,6-16,13.4-25,18.8c-17.9,10.6-36,21.2-57,24.6
	c-2.5,0.4-4.9,0.6-7.4,0.2c-1.3-0.2-3-0.1-2.9-2.3c16.1,0.6,29.3-7.3,42.8-14.6c15.2-8.3,28.9-18.6,42.1-29.6
	C344.3,524.8,345.6,523.1,347,521.6L347,521.6z"/>
<path class="st64" d="M350.2,527.9c11.6-10.3,23.7-19.8,34.7-30.8c5.5-5.4,11.4-10.3,15.1-17.2c1.2-2.2,3.8-3,6.5-2.9
	c-0.3,2.9,0.6,5.9-1.2,8.5c-3,1.9-6.4,3.3-7.8,7c-15.1,17.4-32.1,32.8-50.1,47.2c-18.5,14.7-38.7,25.9-61.2,33.1
	c-1.6,0.1-3.2,0.1-4.7-0.8c-1-3.2,1.8-3.1,3.5-3.9c10.1-4.6,20.3-9,30.1-14.2c10-5.3,18.5-12.8,27.3-19.7
	C344.9,532,347.7,530.1,350.2,527.9z"/>
<path class="st65" d="M396.9,491.8c1-4.5,4-6.4,8.4-6.3c-0.3,1-0.5,2.1-0.8,3.1c1.9,4.6,0.2,8.4-2.4,12.1c-5.4,0.4-8.4,4.1-10.9,8.4
	c-4.2,2.8-7.3,6.7-10.7,10.3c-13,12.1-26.4,23.9-40.9,34.3c-5.5,3.9-11.4,6.9-17.1,10.5c-4.5,1.8-9,3.8-13.7,5.3
	c-2,0.6-4,1.5-6.1,0.4c-1.2-2.6,1.2-2.9,2.5-3.4c18-6.4,32.5-18.6,47.1-30.1c15.1-11.9,28.7-25.7,41.5-40.1
	C395.1,494.9,395.9,493.3,396.9,491.8z"/>
<path class="st66" d="M357.5,576.7c-9.1,5.1-17.5,11.3-27.3,15.3c-1.4,0.6-2.9,1.2-4.3,1.7c-0.8,1.6-2.2,2.5-3.7,3.3
	c-11.6,4.7-23.8,7.6-36.2,9.5c-1.9,0.3-3.9,0.3-5.7-0.5c-1.9-1.3-3.2-2.8-2.2-5.3c1.5-1.4,3.4-1.8,5.3-2c8.4-0.8,16.6-2.7,24.8-4.9
	c11.9-3.6,23.4-8.1,34-14.6c4.8-1.8,8.3-5.9,13.3-7.5c0.6,0,1.1,0.1,1.5,0.4c1.1,1,1.8,2.1,0.7,3.5
	C357.6,576.1,357.5,576.4,357.5,576.7z"/>
<path class="st67" d="M357.6,575.7c-0.4-1.1-0.7-2.2-1.1-3.3c-0.6-1.4,0.2-2.5,1.2-3.1c6.2-3.7,6.6-9.8,6.7-16
	c1.1-3.5,3.1-6,6.9-6.7c3.3,1.7,1.6,5,2.3,8.3c6.1-5.6,10.6-11.8,14.5-18.4c1.9-3.2-1.4-6.4-0.9-9.8c0.1-1.3,0.6-2.5,1.4-3.6
	c2.6-2,2.2-6.7,6.4-7.1c3.5,2.9,3.7,6.6,2,10.5c-1.3,2.9-2.8,5.7-3.5,8.8C384.8,551.6,372.7,565,357.6,575.7L357.6,575.7z"/>
<path class="st68" d="M393.7,535.3c-0.9-2.3-0.2-4.4,1.1-6.4c2.8-4.2,2.8-8.5,0-12.7c-0.6-6,2.8-10.5,5.7-15.2
	c2.7,1,3.2,3.8,4.8,5.6C403.1,517,399.5,526.6,393.7,535.3L393.7,535.3z"/>
<path class="st69" d="M405.3,506.7c-3.2-0.4-3.6-3-4.2-5.5c-0.3-0.2-0.5-0.4-0.3-0.7c0.1-0.2,0.2-0.3,0.4-0.3
	c2.4-3.6,2.8-7.7,3.4-11.7c2.4,0.4,3.2-1.2,3.7-3.4C408.9,492.9,407.8,499.9,405.3,506.7L405.3,506.7z"/>
<path class="st51" d="M415.8,307.2c1-6.7-0.2-13.6,1.3-20.4c0.9-3.8,5.6-8.9,9.6-9.3c2.4-0.2,3.9,0.6,4,3c0.1,1.9,0.1,3.9-0.4,5.8
	c-1.1,3.9-2.1,6.9-0.1,11.6c2.4,5.6-1,12-4.6,17c-2.6,3.6-6,6.8-10.5,8.8V316C415.9,313.1,413.5,310,415.8,307.2L415.8,307.2z"/>
<path class="st70" d="M398.1,337c-1.9,10.1-11.7,11.2-18.4,15.6c-1.8,1.2-4.3,1.5-6.5,2.2c-0.7-2,0-3.6,1.9-4.2
	c2.9-0.9,3.2-3.2,3.1-5.4c-0.3-8.1,1.6-16,1.1-24.1c1.5-3.3,4.7-3.2,7.6-3.7c1.2-0.8,0.3,3.6,2.5,0.9c1.2-1.5,3.4-3.4,5.4-1.4
	c2,2.1,1.1,4.8-0.7,6.7c-3.9,4-7.3,8.1-8,13.8c-0.2,1.7-1.3,3.8,0.6,4.8c2,1,3.2-1,4.1-2.4c1.6-2.5,3.7-3.6,6.6-3.2
	C397.7,336.7,397.9,336.9,398.1,337L398.1,337z"/>
<path class="st71" d="M379.9,320.8c1.9,1.5,1,3.6,0.9,5.3c-0.3,6.5-0.6,12.9-1.3,19.3c-0.3,2.7,1.2,7.3-4.7,6.3
	c-0.4-0.1-1.1,2-1.7,3.1l-2.9,3.2c-4.7,1.6-5.4-1.6-5.7-4.9c-0.7-6.4,0.6-12.6,1.1-18.9c0.1-3,0.6-5.8,4.2-6.3
	c3.2,0.6,2.6,3.2,2.9,5.4c0.6,4.4-1.1,8.6-0.1,13.1c1.7-6.5,2.1-13.3,2.6-20C375.8,323.5,376.3,320.8,379.9,320.8L379.9,320.8z"/>
<path class="st72" d="M370.4,328.1c-2.3,1.2-3.7,2.9-3.4,5.6c-1.5,2.2-3.7,1.7-5.8,1.7c-0.5-0.1-1-0.2-1.4-0.5
	c-1-1.2-1.1-2.3,0.1-3.4c4.8-0.9,7.7-4.7,11.1-7.6c6.9-5.9,13.8-11.9,20.8-17.7c4.1-3.4,8.5-4.6,13.7-4.4c1.9,2.2,1.4,4.6,0.9,7.1
	c-1.1,3-3.3,4-6.3,3.5c-3.6-2.2-6.5-1.3-9.2,1.9c-1.1,1.3-2,2.9-3.9,3.4c-2,1.8-4.9,1.7-7.1,3c-1.8,1.4-3.4,3-3.4,5.5
	C375.2,329.4,372.8,328.7,370.4,328.1L370.4,328.1z"/>
<path class="st54" d="M361,334.8c0.3,0.1,0.6,0.1,0.8,0c1.9,2.1,1.4,4.4-0.1,6.3c-4.4,5.7-1.8,12.4-2.9,18.5
	c-0.2,0.8,0.4-0.2,0.6-0.2c3-0.3,2,1.5,1.6,2.9c-1.9,2.6-3.4,7.2-6.9,5.9c-2.9-1.1-1.1-5.7-1.2-8.8c-0.1-4.8,2.1-9.9-1.1-14.6
	c-0.4-0.6-0.1-2.4,0.5-3c2.9-2.9,3.1-6.5,3.4-10.2c0.1-1.6,0.5-3.5,2.9-3.4c1,1.6,0.3,3.3,0.5,5C359.3,334.5,359.5,335.4,361,334.8
	L361,334.8z"/>
<path class="st70" d="M361,362.3c-0.1-0.7-0.2-2-0.3-2c-5.8,0.1-3.1-4.1-3-6.4c0.3-5-1.4-10.7,3.8-14.6c1.1-0.8,0.5-3,0.3-4.6
	l5.2-1.1c-0.3,6.8-0.7,13.7-0.9,20.5c-0.1,2.6,0.3,5.3,4.2,3.8C367.2,359.4,364.1,360.9,361,362.3z"/>
<path class="st73" d="M405.2,309.3l0.3-7.5c0-3.7-0.4-7.5,1-11.2c0.6-1.8,1.5-3.5,3.3-3.2c1.7,0.3,0.8,2.3,0.9,3.6
	c0.1,2.1,0,4.1,0,6.2c-0.7,2.9-0.6,5.8,0.1,8.8c0.8,3.1,0.8,6.3-0.4,9.3c-1.2,2.8-0.9,5.4,0.3,8c0.4,4.3-1.7,6.9-5.8,8
	c-3.2-2.5-1.9-6.1-2.1-9.2C402.5,317.7,403.8,313.5,405.2,309.3L405.2,309.3z"/>
<path class="st74" d="M338.2,380.5c0.6-9.7,1-18.5,1.6-27.3c0.2-2.9,0.4-3,4.1-2.6c1.3,0.1,0.7-0.8,1-1.2c1.1-1.7,1.2-4.1,4.1-5.3
	c0.1,3.2,0.5,5.6-2.1,8.1c-2.2,2-3,5.1-3.2,8.2c-0.3,4.8-0.9,9.5-0.9,14.3C342.8,377.6,341.4,379,338.2,380.5z"/>
<path class="st70" d="M405.2,309.3c0.3,7.4-2,14.7-0.4,22.1c-3.2,0.7-3.3,5.2-6.7,5.6c0,0-0.2-0.2-0.2-0.2c-0.9-0.7-1.3-1.7-1.3-2.8
	c0-7,0.7-14,1.4-21c0.1-0.7,0.6-1.2,1.2-1.7C401.4,311.4,403.8,311.8,405.2,309.3L405.2,309.3z"/>
<path class="st72" d="M410.6,323.3c-1.8,0.5-2.1-0.5-2-2c0.7-8,1.3-16.1,2-24.1c0.2,2.4-0.1,5,0.6,7.2c0.6,1.6,1.7,4.1,4.6,2.7
	c0.1,3,0.3,6-0.8,8.9c-0.3-0.8-0.5-2.4-1.2-1.9c-1.6,1.3-4.1,2.4-3.3,5.2C410.9,320.8,411.4,322,410.6,323.3L410.6,323.3z"/>
<path class="st70" d="M361,334.8c-0.9,1.1-2,2.6-2.3-0.3c-0.2-2-0.1-4.1-0.1-6.2c2.2,0.4,0.5,2.2,1.1,3.2
	C359.7,332.8,359.6,334.1,361,334.8L361,334.8z"/>
<path class="st75" d="M438.2,294.7c0.1-5.1,0.5-8.7,2.3-12.1c0.6-1.1,1.3-2.3,2.8-2c1.2,0.3,1.3,1.5,1.3,2.6c0.2,4.6,0,9.2-1.6,13.6
	c-0.6,1.6-1.4,3.8-3.4,3.4c-1.9-0.4-1.2-2.6-1.3-4.2C438.2,295.2,438.2,294.3,438.2,294.7L438.2,294.7z"/>
<path class="st76" d="M87.8,285.9c-3.2-9.1-6.5-18.1-8.7-27.5c-0.7-2.9-2-6.4,1.2-8.1c3.2-1.7,6.5-0.2,9.1,2.4
	c15.4,16,31,31.8,39.1,53.3c1.8,4.7,4.8,9,7.2,13.5c0.7,1.3,1.6,2.3,3.2,2.4c1.1,6.7,0.2,13.7,3.2,20.1c0.8,1.6,2.3,3.3,0.8,5.4
	c-0.7,0-1.4,0.1-2.2,0.1c-2.6-0.6-2.8-3-3.5-4.9c-3.8-9.9-7.4-19.9-11.1-29.8c-0.7-1.8-0.9-4.5-2.9-4.7c-2.4-0.2-2,2.8-2.8,4.4
	c-2.9,5.4-3,12-7.2,16.8c-1.3-0.1-2.2-0.8-2.9-1.9c-1-3.6-3.7-6.4-5.1-9.8c-0.9-2-1.7-4.1,1.7-4.7c3.5-0.6,3.3-3.4,2.9-5.8
	c-0.9-6.5-3.5-12.3-8.9-16.3c-3.8-2.8-7.6-5.6-11.7-8.2C88.7,283.8,89.2,285.3,87.8,285.9L87.8,285.9z"/>
<path class="st58" d="M87.8,285.9c0.5-1.7-0.7-3.5,0.5-5.4c9.8,7,21.4,12.2,22.9,26.4c0.6,5.9-0.9,8-6.1,7.4
	c1.9,3.6,3.7,6.9,5.3,10.3c0.4,0.8,2.2,2-0.1,2.9c-2.5-1.1-3.8-3.1-4.9-5.5c-3.3-6.8-6.7-13.5-10.1-20.3c3.1-1.5,4.8,1.2,6.9,2.4
	c0.9,0.5,1.7,1.6,2.8,1c1.3-0.8,0.6-2.2,0.3-3.4c-0.6-2.1-2.1-3.6-3.8-4.9c-2.4-1.8-4.9-3.4-8.1-5.9c0.9,3.7-1.5,6.2-0.1,9
	c0.2,4-0.3,8.1,0.9,12c0.3,1,0.9,2.8-0.7,3.2c-1.6,0.4-2.5-1.2-2.7-2.6c-0.7-5.3-1.2-10.7-1.9-16c-1.6-1.7-0.1-3.8-0.8-5.6
	L87.8,285.9L87.8,285.9z M113.2,329.4l7.5-21.8c0.4-1.1,0.4-2.6,2.1-2.6c1.4,0.1,2.1,1.3,2.5,2.4c1.8,4.4,3.5,8.8,5.1,13.2
	c3.4,9,6.8,18,10.3,27c-2.8,2.1-3.8-0.2-4.4-2.1c-0.7-1.9-1.6-3.8-2.8-5.5c-2.5-2.2-5.4-3.8-8.1-5.6c-2.9-1.9-4.9-4.4-4.2-8.2
	c2.9-3.9,4.6,0.4,6.9,0.7c-1-3.3-2.2-6.7-3.7-10.4c-1.5,3.1-1.9,6.2-3.5,9c-0.7,1.8-1,3.9-3,5C115.7,332.8,114.5,331,113.2,329.4z
	 M142.9,347.5c-3.6-8.1-6.8-16.3-4.1-25.5c1.9-3.2,4.4-2.3,6.7-0.7c4.1,2.7,7.9,5.8,12,8.5c1.8,1.2,1.6,2.5,0.7,4
	c-1.4,2.4-2.4,0.2-3.3-0.4c-2.5-1.6-4.9-3.5-7.4-5.2c-3.8-2.5-6.1-1.5-6.1,3.1c0,7.3,2.2,13.9,8.2,18.7c3.3,2.6,6.8,5.1,10.3,7.4
	c2,1.3,2.6,2.6,1.3,4.7c-1.8,2.9-3.6-0.1-4.1-0.5C152.2,357.2,145.4,354.5,142.9,347.5L142.9,347.5z"/>
<path class="st77" d="M93.2,300c-1.4-3.4-0.9-6.9-1.3-12c5.6,5.4,12.9,7.1,15.1,14.5c0.5,1.8,1.3,4.1-0.6,5.3
	c-1.5,0.9-2.7-1.1-4-1.9c-2.4-1.3-4.1-3.9-7.1-4.2c-0.2-0.6-0.5-1.2-0.4-1.8c0.2-1.1,1.3-2.6-0.4-2.8C92.9,297,93.6,299,93.2,300z"
	/>
<path class="st76" d="M121.8,326.2c0.3,5.6,5,7.7,8.7,10.5c1.2,0.9,2.6,1.7,3,3.3c-5.7-2.3-10.7-5.9-15.6-9.5
	c0.7-1.8,0.7-3.8,2.1-5.3C120.9,325,121.5,325.4,121.8,326.2z M88.1,291c0.9,1.8,0.9,3.7,0.8,5.6c-0.6,1-1.1,2.1-1.7,3.1
	c-0.1-2.5-0.2-4.9-0.2-7.4L88.1,291z"/>
<path class="st78" d="M60.3,274.2c0-1.9-0.3-4,1.6-5.3c2.1-1.3,3.6,0.5,5.1,1.5c8,5.1,15.2,10.9,16.2,21.4c0.2,2,0.3,3.9-0.5,5.7
	c-0.6,1.4-1.5,2.2-3.3,1.7C69.9,296.7,60.4,284.3,60.3,274.2z"/>
<path class="st79" d="M350.2,527.9c-5.9,6.6-13.4,11.3-20.1,17c-13,11-28.6,17-44,23.6c-1.8,0.8-3.7,1.3-5,2.9
	c-5.6,4.1-12.1,4.1-18.6,4.1c-14.4-0.1-25.3-8.1-36-16.2c-23.7-17.8-45.9-37.5-69.4-55.6c-11.3-8.7-23-17-34.6-25.4
	c-2.1-1.5-4.3-3.1-7-3.5c-1.8-2.3-0.6-4.9-0.9-7.4c6.2,2.9,11.4,7.5,16.8,11.6c16.9,12.6,33.8,25.3,50.4,38.3
	c15.2,11.9,29.9,24.5,45.2,36.4c9.3,7.2,18.4,14.9,30.8,16.6c5.7,2.8,11.6,0.9,16.9-0.7c22.8-6.8,43.7-17.5,62.4-32.3
	C341.3,534.1,344.9,529.9,350.2,527.9L350.2,527.9z"/>
<path class="st80" d="M127.3,499.3c-0.6-5.2-4.4-6-8.5-6.4c-0.6-1.8-1.2-3.5-1.9-5.3c3-1.7,4.9,0.7,7.1,1.9
	c16.4,8.9,30.4,21.2,44.8,32.9c16.1,13,31,27.4,47.9,39.4c9.1,6.5,18.1,13,28.4,17.5c5.3,2.4,10.8,2.8,16.4,3.6
	c19.7,2.9,37-5.5,55-10.6c2.5-0.7,4.9-2.1,7.5-2.7c0.5,0,1,0.1,1.5,0.3c1.2,2.6-1.2,3.6-2.3,5.1c-1.3,1.7-3.6,2.7-4,5.2
	c-3.4,3-7.9,3.5-12,4.7c-7.5,2.3-15.2,3.9-23,4.8c-4.1,0.5-8.1,1.4-12.3,1.1c-0.9,0-1.8,0-2.6,0c-3.5-0.2-6.9,0.2-10.4-0.4
	c-6-2.5-12-5-18.3-6.9c-6.8-2.1-12-7.3-18-11c-23.5-14.5-42.4-34.5-63.5-51.9c-8-6.6-16.3-13-24.9-18.9
	C132,500.4,129.7,499.9,127.3,499.3L127.3,499.3z"/>
<path class="st81" d="M324.7,570.3c-10.2,4.9-21,8-32,10.6c-3.8,0.9-7.3,2.7-11.1,3.2c-19.4,2.7-36.7-1.4-53.3-12.6
	c-26.2-17.8-48.9-39.7-73.6-59.1c-11.8-9.3-23.8-18.6-37.8-24.7c-0.3-1.8-0.7-3.5-1-5.3c2-1.8,3.6-0.2,5.2,0.6
	c10.5,4.8,19.5,11.9,28.6,18.9c11.5,8.9,23.1,17.8,33.9,27.6c13.6,13.2,28.2,25.2,43.8,35.9c9.4,6.4,19.2,11.9,30.5,14.3
	c10.5,2.2,21,1.8,31.2-1.1c9.8-2.8,19.4-6.5,28.9-10.4c2.6-0.5,5-2.5,7.9-1.2C326.8,568.6,326.1,569.6,324.7,570.3L324.7,570.3z"/>
<path class="st82" d="M115.6,474.9c0.8-3.2,2.5-0.9,3.4-0.3c13.4,8.7,26.2,18.2,38.8,28.1c13.4,10.5,26.8,21,39.9,31.8
	c12.3,10.2,24.7,20.2,37.7,29.5c14.2,10.2,29.3,12.6,45.8,7.4l5.3,0c-1.3,4.6-6.1,3.5-9,5.6c-8.4,2.2-16.9,1.4-25.4,0.1
	c-1.7,0-3.4-0.4-5.1-1c-2.3-0.8-4.7-1.4-6.5-3c-6.5-5.7-13.3-10.8-21.1-14.5c-4.5-2-7.9-5.4-11.4-8.6c-9.3-10.2-20.5-18.3-31.1-26.9
	c-14.6-11.7-28.9-23.7-44.3-34.3c-5.6-3.9-12.1-6.6-16.8-11.8C115.7,476.3,115.6,475.6,115.6,474.9L115.6,474.9z"/>
<path class="st83" d="M115.7,477c12.2,6.3,23.2,14.4,33.9,22.9c17.9,14.1,35.6,28.4,53.3,42.8c2.3,1.8,4.1,4.3,6.1,6.5
	c-2.8,2.1-4.3-0.5-5.8-1.8c-6.9-5.8-13.8-11.5-20.7-17.3c-16.8-14.1-33.6-28-51.7-40.3c-4.5-3.1-9.4-6-14.9-7.4L115.7,477L115.7,477
	z"/>
<path class="st84" d="M131.5,508.9c-0.7-1.4-1.2-2.7-1.1-4.3c2.9-1.7,4.6,0.6,6.5,2c15.5,10.8,29.6,23.4,43.9,35.7
	c14.7,12.5,29.7,24.3,45.5,35.3c3.6,2.5,7.9,3.9,11.5,6.5c1.6,1.2,4.7,2,2.4,5.1c-3.7,1.2-7.3-0.6-10.9-0.7
	c-3.4-0.7-6.8-1.3-10.2-2.4c-1.5-0.5-3.6-0.4-3.8-2.8c-1-3.9-4-6.3-7.3-7.8c-11.4-5.2-19.6-14.7-29.4-22.1
	c-12.6-9.4-23.5-20.9-37.2-29.2C136.4,521,134.3,514.4,131.5,508.9L131.5,508.9z"/>
<path class="st1" d="M154.8,563.1c-1.4-1.5-2.8-3-4.1-4.5c-1.5-4.4,2.5-4.5,5-6.3c-4.6-4.7-9.3-9.3-14-14c-2-2.1-3.4-4.7-5.5-6.7
	c-0.9-1.4-2.3-2.7-1.4-4.7c1.9-1.9,3.4,0,4.5,1c2.9,2.9,6.8,4.6,9.5,7.4c11.4,12,24.5,22,37.1,32.7c1,0.8,1.9,2,1.5,3.8
	c-4.3-0.7-7-4.7-11.8-5.3c1,5.5,6.8,8.8,5.9,14.7c-1.2,0.9-2.4,0.5-3.5-0.1c-7.2-4.1-14-8.7-20.4-14.1
	C156.4,565.9,155.9,564.3,154.8,563.1L154.8,563.1z"/>
<path class="st85" d="M215.4,583.2c4.2,2.5,9.4,1.9,13.8,4.1c1.8,1.9,2.9,4.3,4.1,6.6c2.1,4.2,0.8,6.5-3.9,6.2c-3-0.2-5.5,0-7.5,2.5
	c-7.2,0-13.8-1.9-19.6-6.3c-0.1-1.8,0.4-3.3,2-4.3c2.5-1,4.8,0.3,7.1,0.9c1,0.3,2.1,1,2.9,0c0.8-0.9,0-2-0.3-3
	c-0.7-2.2-2.8-4.3-0.8-6.8C214,583.1,214.7,583.2,215.4,583.2z"/>
<path class="st84" d="M204.8,592.7c-2.1-1.1-4.2-2.1-6.4-3.2c2.7-3.7-0.9-6-2.1-8.9c-0.5-1.1-1.6-2.1-0.5-3.2
	c0.9-0.9,1.9-0.3,2.9,0.1c4.8,1.9,9.7,3.7,14.5,5.6c-0.2,3.2,2.2,5.4,2.9,8.2c0.7,2.8,0.6,5-3.4,3.5
	C210.2,593.9,207.4,593.4,204.8,592.7L204.8,592.7z"/>
<path class="st62" d="M240.8,588.3c-1.6-3.4-5.1-4.3-7.9-5.9c-19.4-10.9-36.1-25.4-53.1-39.6c-14.8-12.4-29.3-25.3-45-36.5
	c-1.3-0.9-2.7-1.7-4.3-1.8c-1.1-1.8-2.1-3.6-3.2-5.3c2-1.4,4-1,5.9,0.3c9.4,6.3,18.4,13,26.9,20.3c12.4,10.6,25.2,20.9,37,32.1
	c12.1,11.5,26.7,19.4,40.2,28.8c4.4,3.1,10.4,3.8,15.7,5.8c1.7,0.6,4,0.6,4.8,2.8c-4.5,2.9-9.3,1.5-14,1.1
	C242.5,590.2,241.4,589.6,240.8,588.3L240.8,588.3z"/>
<path class="st86" d="M278,575.7c2.4-2.3,6.3-1.5,8.5-4.2c24.1-8,45.7-20.6,65.2-37c11.6-9.8,23.1-19.5,33.6-30.5
	c3.9-4.1,6.8-9,11.6-12.2c-0.2,4.2-3.3,6.8-5.9,9.6c-20.2,21.9-42.4,41.4-67.3,57.7c-6.6,4.3-14.3,6.4-21.3,10.2
	C294.9,573.8,287.1,577.2,278,575.7L278,575.7z"/>
<path class="st87" d="M182.5,530c6.3,3,10.6,8.5,16.2,12.4c3.4,2.4,5.6,6.5,10.3,6.7c3.2,3.3,6.8,6,10.6,8.5
	c7.1,4.9,14.2,9.9,21.2,14.8c2.1,0.7,4.2,1.4,6.4,2.1c2.2,3,5.8,2.3,8.7,2.9c9.7,1.8,19.5,1.5,29-1.5c13-3.1,25.8-6.8,37.7-13
	c21.2-12.1,39.3-28.2,57.3-44.6c1.5,2.6-0.6,3.9-2,5.3c-11.5,12.3-24.5,22.7-38.1,32.4c-6.8,4.9-13.5,10.2-21.5,13.2
	c-10.9,5-22.1,9.7-33.6,12c-18.5,3.7-36.2-0.5-52.3-10.9c-17.5-11.3-33.2-24.8-48.7-38.7C183.2,531.3,182.9,530.6,182.5,530
	L182.5,530z"/>
<path class="st88" d="M318.3,569.3c5.7-3.9,11.5-7.8,17.2-11.8c15-10.5,29.3-21.9,42-35.2c1.1-1.1,2.4-2.1,2.4-4
	c3.4-3.4,5.7-7.9,10.6-9.6c-0.1,5.6-3.2,9.7-6.7,13.6c-5.4,2.9-8.8,8-13,12.2c-8.9,8.9-19,16.3-29.3,23.4c-3.6,2.5-7.1,5.3-10.7,7.8
	c-1.5,1-2.8,3-5.1,1.4C323.3,567.9,320.8,568.6,318.3,569.3z"/>
<path class="st89" d="M383.1,521.5c3.5-3.7,5.1-8.4,7.4-12.7c2.2-4.5,3.8-9.7,10.6-8.5c0,0.3,0,0.6,0,1l-6.3,15
	c-2.5,2-2.4,5.8-5.2,7.5c-2.1-1-4.6,0.5-6.6-1C382.6,522.3,382.7,521.9,383.1,521.5L383.1,521.5z"/>
<path class="st90" d="M322.6,563c-1.7,3.2-5.3,3.2-8,4.4c-7.8,3.5-15.7,6.5-24,8.8c-1.6,0.5-3.4,0.4-5.2,0.5
	c-9.7,2.9-19.5,3.6-29.4,1.5c-1.6-0.3-3.9-0.1-4.5-2.6c8.8,1.1,17.7,2,26.5,0c8.5-0.6,16.3-4.2,24.4-6.4
	C309.7,569.1,315.8,564.8,322.6,563z"/>
<path class="st91" d="M284.4,588.6c12-2.3,24.1-4.3,35.3-9.5c7.3-4.4,14.7-8.4,23-10.5c4.6,3.7,1.7,7.6,0.2,11.5
	c-10.4,7.1-21.9,11.6-34,14.8c-6.3,1.1-12.5,2-18.9,1.4C284.9,595.7,283.3,593.5,284.4,588.6L284.4,588.6z"/>
<path class="st92" d="M280.1,605.3c-12.4,1.8-24.7,1.9-37.1,0.1c4.2-3.8,4.3-4.7,0.8-9.4c-1.1-1.5-2.7-2.8-3-4.8
	c-0.3-1.8,0.2-2.8,2.2-1.7c5,0,9.9,0,14.9,0l11.7,0.1c-0.7,2.9-3.2,1.9-5,2.4c-1.8,0.5-4.6-1.4-5.3,1.6c-0.6,2.4,3.4,6.9,5.9,7.2
	c2.1,0.2,4.2-0.5,6.3-0.7c1.2-0.2,2.4-0.2,3.7-0.1c1.1,0.1,2.2,0.4,2.9,1.4C278.7,602.6,279.4,604,280.1,605.3L280.1,605.3z"/>
<path class="st93" d="M278,601.2c-1,0-2.1-0.1-3.1-0.1c-1.6-2.5-0.8-6.2-4-8.1c-1-0.6-0.9-2.6,0.8-3.3c4.2-0.4,8.5-0.7,12.7-1.1
	c0,4.7,2.3,6.5,7,6.3c5.8-0.3,11.6,0,17.4,0C298.9,598.8,288.4,599.5,278,601.2L278,601.2z"/>
<path class="st94" d="M342.9,580c-0.2-2.1,0-4.1,0.6-6.2c0.5-1.7,1.2-3.9-1.7-4.5c2.8-5.2,8-7,13.1-8.9c0.6-0.2,1.2,0.6,1.5,1.2
	c1,3.7,1.3,7.4-0.9,10.8C351.2,575,347.7,578.6,342.9,580z"/>
<path class="st95" d="M355.4,572.5c0-4,0-8,0-11.9c2-3.9,4.7-6.8,9.4-7.2c2.1,5.1,0.3,12.1-4.2,15.4c-1.5,1.1-3.3,1.9-4.1,3.8
	C356.2,572.5,355.8,572.5,355.4,572.5z"/>
<path class="st96" d="M364.9,553.3c-3.1,2.4-6.3,4.8-9.4,7.2l-13.7,8.8c-7.3,3.3-14.2,7.6-22.1,9.7c-0.3-4.6,4.9-5.2,6.1-8.7
	c3-4.2,8-5.5,12.2-8c15.7-9.2,29.2-20.8,40.1-35.2c1.4-1.9,2.8-3.6,5-4.5c2,1.1,5-3.5,6.4,1.1c-0.4,1-0.8,2-1.3,3
	c-4.2,8-9.1,15.3-16.9,20.2L364.9,553.3z"/>
<path class="st97" d="M371.4,546.9c5.6-6.7,11.3-13.5,16.9-20.2c-0.4,3.5,3.5,6.5,1.3,10.1c-4.3,7.1-9.1,13.8-15.3,19.4
	c-0.5,0.5-1.1,1-1.8,0.6c-1.1-0.7-1.2-1.8-0.8-2.8C372.8,551.6,372.7,549.2,371.4,546.9z"/>
<path class="st98" d="M420.3,314.2c0-3.5-0.1-6.6,0-9.7c0.1-2.3,1.9-3.7,3.8-3.5c2.5,0.2,1.8,2.6,1.6,4.2
	C425.5,308.9,424.4,312.3,420.3,314.2L420.3,314.2z"/>
<path class="st99" d="M421,296.4c0.2-3.5,0.2-6.3,0.5-9c0.2-1.5,1.6-2.6,3-2.5c1.9,0.2,1.7,2,1.5,3.3
	C425.7,291.2,424.9,294.1,421,296.4L421,296.4z"/>
<path class="st50" d="M399.2,311.4c-0.4,8.5-0.9,17-1.3,25.5c-3.6,0.9-6,3.1-8,6.2c-0.7,1.1-2.1,2.2-3.6,1.7c-1.8-0.5-1.9-2.4-1.9-4
	c0.2-6.2,2.1-11.8,6.7-16.2c0.9-0.9,1.9-1.6,2.8-2.5c1.5-1.5,1.5-3.6,0.4-4.8c-1.1-1.3-2.5,0.5-3.5,1.3c-1.1,0.9-2,1.9-3.1,2.8
	c-1-1.3-0.6-2.5-0.7-3.7c1.1-3.1,3.6-5,5.8-7.1C395.1,308.5,397.4,308.6,399.2,311.4L399.2,311.4z"/>
<path class="st70" d="M370.4,328.1c2-0.7,4.4,0,6.1-1.8c-0.3,6.2-0.6,12.3-1,18.4c-0.1,1-0.4,2-1,2.9c-0.7,1.1-1.4,2.8-3.1,2.2
	c-1.4-0.5-1-2.1-0.9-3.3c0.2-4.7,0.7-9.5,0.9-14.2C371.4,330.9,372.4,329.1,370.4,328.1z"/>
<path class="st100" d="M121.8,326.2c-0.6-0.3-1.1-0.7-1.7-1c1.2-3.8,2.5-7.5,4.2-12.7l6.3,17.3C126.8,329.9,125.7,324.7,121.8,326.2
	z"/>
<path class="st101" d="M383.1,522.6c-14.6,21.3-34.2,36.7-57.3,47.8c-0.4,0-0.8,0-1.1-0.1c0.4-1,0.7-2.1,1.1-3.1
	c7.4-5.1,14.7-10.1,22.1-15.1c9.6-6.5,18-14.5,26.5-22.3c2.9-2.7,4.5-6.9,8.8-8.2L383.1,522.6L383.1,522.6z"/>
<path class="st102" d="M271.7,589.6c-1,1.4-0.6,3.3,0.5,3.7c3.9,1.7,2.5,5,2.7,7.8c-1.1,0-2.1,0-3.2,0.1
	c-10.5,1.3-11.5,0.8-15.1-8.4c-1-2.5,0.9-2.1,2.1-2.2c3.6-0.5,7.4,0.9,10.8-1C270.2,589.6,271,589.6,271.7,589.6L271.7,589.6z"/>
<path class="st90" d="M240.9,572.5c-8.1-3.5-15.2-8.4-21.2-14.8c1.9-0.3,3.3,0.8,4.8,1.8c4.7,3.3,9.4,6.6,14.2,9.8
	C239.9,570.1,240.8,570.9,240.9,572.5z"/>
<path class="st83" d="M251.5,575.7c9.5,4.5,19.4,3.5,29.3,1.8c1.5-0.3,3.1-0.5,4.7-0.7c-12.5,5-24.9,4.2-37.3-0.4
	c-0.5-0.2-0.6-1.2-0.9-1.7C248.6,575.3,249.9,575.8,251.5,575.7z"/>
<path class="st103" d="M243,589.5c-3.2,0.9-0.7,2.5-0.1,3.3c1.3,1.8,3,3.3,4,5.4c2.3,4.8,1.6,6.1-3.9,7.3c-7.3,0-14.3-1.5-21.2-3.4
	c0.6-3.4,2.3-4.8,5.9-3.4c1.7,0.7,4.1,1.3,5.3-0.5c1.2-1.8-0.6-3.5-1.7-5.1c-1.2-1.8-2.2-3.6-2-5.8c3.9,0.3,7.7,0.7,11.6,1
	C241.5,588.7,242.2,589.1,243,589.5L243,589.5z"/>
<path class="st104" d="M393.3,327.4c0.5,0.3,0.7,0.4,0.7,0.5c0.4,3.4,0,6.6-3.1,8.7c-0.6,0.4-1.5,0.2-1.6-0.6
	C388.7,332.4,390.2,329.7,393.3,327.4z"/>
</svg>
