<?xml version="1.0" encoding="utf-8"?>
<!-- Generator: Adobe Illustrator 15.0.0, SVG Export Plug-In . SVG Version: 6.00 Build 0)  -->
<!DOCTYPE svg PUBLIC "-//W3C//DTD SVG 1.1//EN" "http://www.w3.org/Graphics/SVG/1.1/DTD/svg11.dtd">
<svg version="1.1" id="Layer_1" xmlns="http://www.w3.org/2000/svg" xmlns:xlink="http://www.w3.org/1999/xlink" x="0px" y="0px"
	 width="548.72px" height="149.827px" viewBox="48.89 117.053 548.72 149.827"
	 enable-background="new 48.89 117.053 548.72 149.827" xml:space="preserve">
<path d="M43.16,117.1c14.95-0.02,29.9-0.16,44.84,0.07c0.26,0.19,0.79,0.56,1.05,0.75c18.2,18.21,36.46,36.35,54.67,54.55
	c17.64-17.94,35.66-35.53,53.39-53.39c1.04-1.02,2.18-2.24,3.81-2c12.03-0.05,24.06,0,36.09-0.02c2.33-0.01,4.7-0.2,6.99,0.38
	c-13.9,13.27-27.27,27.11-40.97,40.6c-29.9,29.79-59.78,59.601-89.68,89.39c-6.56,6.41-12.83,13.131-19.58,19.311
	c-14.94,0.43-29.92,0.14-44.88,0.14c24.21-23.95,48.14-48.18,72.44-72.021C95.17,169.05,69.25,142.99,43.16,117.1z"/>
<path d="M255.1,117.1c12.14-0.08,24.28-0.04,36.42-0.01c-0.05,49.94-0.03,99.891-0.01,149.83c-12.09-0.08-24.19,0.24-36.27-0.16
	c0.09-32.96-0.06-65.92,0.08-98.89c-31.63,31.83-63.55,63.37-95.26,95.11c-1.76,1.58-3.29,4.289-6.04,3.84
	c-16.32-0.11-32.65,0.039-48.98-0.08C155.08,216.88,205.05,166.95,255.1,117.1z"/>
<path d="M299.75,117.14c9.3-0.17,18.6-0.05,27.91-0.04c16.55,16.89,33.46,33.44,50.22,50.13c16.74-16.73,33.51-33.44,50.28-50.14
	c9.229-0.04,18.47-0.03,27.7-0.01c-0.101,49.95-0.101,99.891,0,149.84c-9.33-0.02-18.67,0.12-28-0.07
	c0.1-31.51,0.13-63.02-0.021-94.52c-16.71,16.7-33.18,33.63-50.01,50.21c-16.96-16.54-33.41-33.56-50.141-50.31
	c0.09,31.56-0.109,63.12,0.11,94.68c-9.34,0-18.68,0.1-28.02-0.03C299.76,216.971,299.83,167.05,299.75,117.14z"/>
<path d="M464.12,117.09c9.35,0.02,18.689-0.13,28.04,0.06c-0.09,40.7-0.04,81.39-0.021,122.09c24.96-0.07,49.931,0.01,74.9-0.051
	c1.25,0.121,2.85-0.239,3.78,0.891c8.88,8.99,17.96,17.77,26.79,26.811c-44.5,0.09-88.99,0.049-133.49,0.029
	C464.23,216.971,464.24,167.03,464.12,117.09z"/>
</svg>
